<?xml version="1.0" encoding="UTF-8"?><svg id="_레이어_2" xmlns="http://www.w3.org/2000/svg" width="1664.435" height="1077" viewBox="0 0 1664.435 1077"><g id="_레이어_1-2"><rect x="1.5" y="1.5" width="1245" height="516" rx="37.5" ry="37.5" style="fill:#fff; stroke-width:0px;"/><path d="m1209,3c19.8,0,36,16.2,36,36v441c0,19.8-16.2,36-36,36H39c-19.8,0-36-16.2-36-36V39C3,19.2,19.2,3,39,3h1170m0-3H39C17.495,0,0,17.495,0,39v441c0,21.505,17.495,39,39,39h1170c21.505,0,39-17.495,39-39V39c0-21.505-17.495-39-39-39h0Z" style="fill:#efefef; stroke-width:0px;"/><line x1="75" y1="219" x2="165" y2="75" style="fill:none; stroke:#000; stroke-linejoin:round; stroke-width:4.5px;"/><line x1="255" y1="219" x2="165" y2="75" style="fill:none; stroke:#000; stroke-linejoin:round; stroke-width:4.5px;"/><line x1="75" y1="219" x2="75" y2="363" style="fill:none; stroke:#000; stroke-linejoin:round; stroke-width:4.5px;"/><line x1="255" y1="219" x2="201" y2="363" style="fill:none; stroke:#000; stroke-linejoin:round; stroke-width:4.5px;"/><line x1="309" y1="363" x2="255" y2="219" style="fill:none; stroke:#000; stroke-linejoin:round; stroke-width:4.5px;"/><circle cx="165" cy="75" r="33.75" style="fill:#efefef; stroke-width:0px;"/><path d="m165,43.5c17.369,0,31.5,14.131,31.5,31.5s-14.131,31.5-31.5,31.5-31.5-14.131-31.5-31.5,14.131-31.5,31.5-31.5m0-4.5c-19.882,0-36,16.118-36,36s16.118,36,36,36,36-16.118,36-36-16.118-36-36-36h0Z" style="stroke-width:0px;"/><circle cx="75" cy="219" r="33.75" style="fill:#ed1c24; stroke-width:0px;"/><path d="m75,187.5c17.369,0,31.5,14.131,31.5,31.5s-14.131,31.5-31.5,31.5-31.5-14.131-31.5-31.5,14.131-31.5,31.5-31.5m0-4.5c-19.882,0-36,16.118-36,36s16.118,36,36,36,36-16.118,36-36-16.118-36-36-36h0Z" style="stroke-width:0px;"/><circle cx="75" cy="363" r="33.75" style="fill:#efefef; stroke-width:0px;"/><path d="m75,331.5c17.369,0,31.5,14.131,31.5,31.5s-14.131,31.5-31.5,31.5-31.5-14.131-31.5-31.5,14.131-31.5,31.5-31.5m0-4.5c-19.882,0-36,16.118-36,36s16.118,36,36,36,36-16.118,36-36-16.118-36-36-36h0Z" style="stroke-width:0px;"/><circle cx="201" cy="363" r="33.75" style="fill:#efefef; stroke-width:0px;"/><path d="m201,331.5c17.369,0,31.5,14.131,31.5,31.5s-14.131,31.5-31.5,31.5-31.5-14.131-31.5-31.5,14.131-31.5,31.5-31.5m0-4.5c-19.882,0-36,16.118-36,36s16.118,36,36,36,36-16.118,36-36-16.118-36-36-36h0Z" style="stroke-width:0px;"/><circle cx="255" cy="219" r="33.75" style="fill:#efefef; stroke-width:0px;"/><path d="m255,187.5c17.369,0,31.5,14.131,31.5,31.5s-14.131,31.5-31.5,31.5-31.5-14.131-31.5-31.5,14.131-31.5,31.5-31.5m0-4.5c-19.882,0-36,16.118-36,36s16.118,36,36,36,36-16.118,36-36-16.118-36-36-36h0Z" style="stroke-width:0px;"/><circle cx="309" cy="363" r="33.75" style="fill:#efefef; stroke-width:0px;"/><path d="m309,331.5c17.369,0,31.5,14.131,31.5,31.5s-14.131,31.5-31.5,31.5-31.5-14.131-31.5-31.5,14.131-31.5,31.5-31.5m0-4.5c-19.882,0-36,16.118-36,36s16.118,36,36,36,36-16.118,36-36-16.118-36-36-36h0Z" style="stroke-width:0px;"/><line x1="507" y1="219" x2="597" y2="75" style="fill:none; stroke:#000; stroke-linejoin:round; stroke-width:4.5px;"/><line x1="687" y1="219" x2="597" y2="75" style="fill:none; stroke:#000; stroke-linejoin:round; stroke-width:4.5px;"/><line x1="507" y1="219" x2="507" y2="363" style="fill:none; stroke:#000; stroke-linejoin:round; stroke-width:4.5px;"/><line x1="687" y1="219" x2="633" y2="363" style="fill:none; stroke:#000; stroke-linejoin:round; stroke-width:4.5px;"/><line x1="741" y1="363" x2="687" y2="219" style="fill:none; stroke:#000; stroke-linejoin:round; stroke-width:4.5px;"/><circle cx="597" cy="75" r="33.75" style="fill:#efefef; stroke-width:0px;"/><path d="m597,43.5c17.369,0,31.5,14.131,31.5,31.5s-14.131,31.5-31.5,31.5-31.5-14.131-31.5-31.5,14.131-31.5,31.5-31.5m0-4.5c-19.882,0-36,16.118-36,36s16.118,36,36,36,36-16.118,36-36-16.118-36-36-36h0Z" style="stroke-width:0px;"/><circle cx="507" cy="219" r="33.75" style="fill:#ed1c24; stroke-width:0px;"/><path d="m507,187.5c17.369,0,31.5,14.131,31.5,31.5s-14.131,31.5-31.5,31.5-31.5-14.131-31.5-31.5,14.131-31.5,31.5-31.5m0-4.5c-19.882,0-36,16.118-36,36s16.118,36,36,36,36-16.118,36-36-16.118-36-36-36h0Z" style="stroke-width:0px;"/><circle cx="507" cy="363" r="33.75" style="fill:#ed1c24; stroke-width:0px;"/><path d="m507,331.5c17.369,0,31.5,14.131,31.5,31.5s-14.131,31.5-31.5,31.5-31.5-14.131-31.5-31.5,14.131-31.5,31.5-31.5m0-4.5c-19.882,0-36,16.118-36,36s16.118,36,36,36,36-16.118,36-36-16.118-36-36-36h0Z" style="stroke-width:0px;"/><circle cx="633" cy="363" r="33.75" style="fill:#efefef; stroke-width:0px;"/><path d="m633,331.5c17.369,0,31.5,14.131,31.5,31.5s-14.131,31.5-31.5,31.5-31.5-14.131-31.5-31.5,14.131-31.5,31.5-31.5m0-4.5c-19.882,0-36,16.118-36,36s16.118,36,36,36,36-16.118,36-36-16.118-36-36-36h0Z" style="stroke-width:0px;"/><circle cx="687" cy="219" r="33.75" style="fill:#efefef; stroke-width:0px;"/><path d="m687,187.5c17.369,0,31.5,14.131,31.5,31.5s-14.131,31.5-31.5,31.5-31.5-14.131-31.5-31.5,14.131-31.5,31.5-31.5m0-4.5c-19.882,0-36,16.118-36,36s16.118,36,36,36,36-16.118,36-36-16.118-36-36-36h0Z" style="stroke-width:0px;"/><circle cx="741" cy="363" r="33.75" style="fill:#efefef; stroke-width:0px;"/><path d="m741,331.5c17.369,0,31.5,14.131,31.5,31.5s-14.131,31.5-31.5,31.5-31.5-14.131-31.5-31.5,14.131-31.5,31.5-31.5m0-4.5c-19.882,0-36,16.118-36,36s16.118,36,36,36,36-16.118,36-36-16.118-36-36-36h0Z" style="stroke-width:0px;"/><line x1="939" y1="219" x2="1029" y2="75" style="fill:none; stroke:#000; stroke-linejoin:round; stroke-width:4.5px;"/><line x1="1119" y1="219" x2="1029" y2="75" style="fill:none; stroke:#000; stroke-linejoin:round; stroke-width:4.5px;"/><line x1="939" y1="219" x2="939" y2="363" style="fill:none; stroke:#000; stroke-linejoin:round; stroke-width:4.5px;"/><line x1="1119" y1="219" x2="1065" y2="363" style="fill:none; stroke:#000; stroke-linejoin:round; stroke-width:4.5px;"/><line x1="1173" y1="363" x2="1119" y2="219" style="fill:none; stroke:#000; stroke-linejoin:round; stroke-width:4.5px;"/><circle cx="1029" cy="75" r="33.75" style="fill:#efefef; stroke-width:0px;"/><path d="m1029,43.5c17.369,0,31.5,14.131,31.5,31.5s-14.131,31.5-31.5,31.5-31.5-14.131-31.5-31.5,14.131-31.5,31.5-31.5m0-4.5c-19.882,0-36,16.118-36,36s16.118,36,36,36,36-16.118,36-36-16.118-36-36-36h0Z" style="stroke-width:0px;"/><circle cx="939" cy="219" r="33.75" style="fill:#ed1c24; stroke-width:0px;"/><path d="m939,187.5c17.369,0,31.5,14.131,31.5,31.5s-14.131,31.5-31.5,31.5-31.5-14.131-31.5-31.5,14.131-31.5,31.5-31.5m0-4.5c-19.882,0-36,16.118-36,36s16.118,36,36,36,36-16.118,36-36-16.118-36-36-36h0Z" style="stroke-width:0px;"/><circle cx="939" cy="363" r="33.75" style="fill:#ed1c24; stroke-width:0px;"/><path d="m939,331.5c17.369,0,31.5,14.131,31.5,31.5s-14.131,31.5-31.5,31.5-31.5-14.131-31.5-31.5,14.131-31.5,31.5-31.5m0-4.5c-19.882,0-36,16.118-36,36s16.118,36,36,36,36-16.118,36-36-16.118-36-36-36h0Z" style="stroke-width:0px;"/><circle cx="1065" cy="363" r="33.75" style="fill:#efefef; stroke-width:0px;"/><path d="m1065,331.5c17.369,0,31.5,14.131,31.5,31.5s-14.131,31.5-31.5,31.5-31.5-14.131-31.5-31.5,14.131-31.5,31.5-31.5m0-4.5c-19.882,0-36,16.118-36,36s16.118,36,36,36,36-16.118,36-36-16.118-36-36-36h0Z" style="stroke-width:0px;"/><circle cx="1119" cy="219" r="33.75" style="fill:#efefef; stroke-width:0px;"/><path d="m1119,187.5c17.369,0,31.5,14.131,31.5,31.5s-14.131,31.5-31.5,31.5-31.5-14.131-31.5-31.5,14.131-31.5,31.5-31.5m0-4.5c-19.882,0-36,16.118-36,36s16.118,36,36,36,36-16.118,36-36-16.118-36-36-36h0Z" style="stroke-width:0px;"/><circle cx="1173" cy="363" r="33.75" style="fill:#efefef; stroke-width:0px;"/><path d="m1173,331.5c17.369,0,31.5,14.131,31.5,31.5s-14.131,31.5-31.5,31.5-31.5-14.131-31.5-31.5,14.131-31.5,31.5-31.5m0-4.5c-19.882,0-36,16.118-36,36s16.118,36,36,36,36-16.118,36-36-16.118-36-36-36h0Z" style="stroke-width:0px;"/><path d="m72.684,471.63c0-3.194-2.025-4.904-6.12-5.939l-2.925-.765c-4.59-1.125-8.46-3.915-8.46-8.955,0-4.725,4.186-8.774,10.935-8.774,4.32,0,7.47,1.215,9.36,2.475,2.069,1.396.18,4.5-1.936,3.195-1.8-1.125-4.229-2.025-7.289-2.025-4.141,0-6.795,2.16-6.795,4.95,0,2.88,2.024,4.68,5.76,5.534l2.88.766c5.13,1.17,8.864,4.005,8.864,9.225,0,5.805-4.5,9.765-11.834,9.765-4.14,0-7.695-1.306-9.899-3.15-2.07-1.755.09-4.68,2.249-3.194,1.936,1.439,4.815,2.654,7.605,2.654,4.904,0,7.604-2.159,7.604-5.76Z" style="stroke-width:0px;"/><path d="m82.089,456.556h2.925v-5.444c0-1.08.854-1.665,1.979-1.665s1.936.585,1.936,1.665v5.444h6.3c1.08,0,1.62.765,1.62,1.71,0,1.035-.585,1.755-1.665,1.755h-6.255v13.095c0,3.24,1.35,4.229,3.645,4.229,1.08,0,2.205-.314,3.015-.63,1.891-.765,2.971,2.34.855,3.33-.945.45-2.745.81-4.32.81-4.725,0-7.109-2.159-7.109-7.515v-13.319h-2.97c-1.08,0-1.575-.72-1.575-1.71s.54-1.755,1.62-1.755Z" style="stroke-width:0px;"/><path d="m119.618,463.621v15.524c0,1.125-.854,1.755-1.935,1.755-1.125,0-1.935-.63-1.935-1.619v-1.575c-1.215,1.755-4.545,3.194-7.65,3.194-4.229,0-7.649-2.475-7.649-6.975,0-4.725,3.825-6.93,7.875-7.694,2.205-.405,5.22-.36,7.335-.18v-1.98c0-3.33-2.16-4.5-5.94-4.5-1.62,0-4.185.676-5.67,1.53-2.295.99-3.284-2.34-1.439-3.24,2.069-1.125,5.444-1.8,7.92-1.8,5.13,0,9.089,2.25,9.089,7.56Zm-3.959,10.125v-4.814c-1.891-.226-4.59-.226-6.391.135-2.744.63-4.814,1.845-4.814,4.68,0,2.61,2.295,3.915,4.725,3.915,2.88,0,5.535-1.575,6.48-3.915Z" style="stroke-width:0px;"/><path d="m124.929,456.556h2.925v-5.444c0-1.08.854-1.665,1.979-1.665s1.936.585,1.936,1.665v5.444h6.3c1.08,0,1.62.765,1.62,1.71,0,1.035-.585,1.755-1.665,1.755h-6.255v13.095c0,3.24,1.35,4.229,3.645,4.229,1.08,0,2.205-.314,3.015-.63,1.891-.765,2.971,2.34.855,3.33-.945.45-2.745.81-4.32.81-4.725,0-7.109-2.159-7.109-7.515v-13.319h-2.97c-1.08,0-1.575-.72-1.575-1.71s.54-1.755,1.62-1.755Z" style="stroke-width:0px;"/><path d="m164.844,466.681c0,1.89-.585,2.88-3.195,2.88h-13.994c.18,5.265,3.329,8.01,7.47,8.01,3.015,0,5.039-.811,6.39-1.71,1.8-1.215,3.51,1.484,1.8,2.835-1.575,1.17-4.455,2.34-8.234,2.34-6.93,0-11.7-4.68-11.7-12.734,0-8.28,5.625-12.285,11.115-12.285,6.119,0,10.35,4.455,10.35,10.665Zm-17.145-.36h13.229c-.135-4.455-2.925-6.795-6.525-6.795-3.104,0-6.209,2.25-6.704,6.795Z" style="stroke-width:0px;"/><path d="m180.862,468.391c0-8.19,5.67-12.375,11.564-12.375,2.88,0,5.13.675,6.795,1.665,1.936,1.215.315,4.32-1.71,3.104-1.26-.72-2.88-1.215-4.814-1.215-4.32,0-7.649,2.88-7.649,8.82,0,6.209,3.42,9.18,7.649,9.18,2.745,0,4.635-.9,5.85-1.755,1.71-1.17,3.645,1.395,1.89,2.925-1.8,1.439-4.725,2.34-8.01,2.34-6.435,0-11.564-4.5-11.564-12.689Z" style="stroke-width:0px;"/><path d="m205.703,447.197c0-1.035.855-1.665,2.025-1.665,1.125,0,1.979.63,1.979,1.665v12.914c1.845-2.52,4.86-3.96,8.01-3.96,4.365,0,8.325,2.655,8.325,7.74v15.345c0,1.079-.855,1.664-1.98,1.664s-1.979-.585-1.979-1.664v-14.67c0-2.97-2.25-4.859-5.58-4.859-2.745,0-5.354,1.484-6.795,4.904v14.625c0,1.079-.854,1.664-1.979,1.664-1.17,0-2.025-.585-2.025-1.664v-32.039Z" style="stroke-width:0px;"/><path d="m249.981,463.621v15.524c0,1.125-.854,1.755-1.935,1.755-1.125,0-1.935-.63-1.935-1.619v-1.575c-1.215,1.755-4.545,3.194-7.65,3.194-4.229,0-7.649-2.475-7.649-6.975,0-4.725,3.825-6.93,7.875-7.694,2.205-.405,5.22-.36,7.335-.18v-1.98c0-3.33-2.16-4.5-5.94-4.5-1.62,0-4.185.676-5.67,1.53-2.295.99-3.284-2.34-1.439-3.24,2.069-1.125,5.444-1.8,7.92-1.8,5.13,0,9.089,2.25,9.089,7.56Zm-3.959,10.125v-4.814c-1.891-.226-4.59-.226-6.391.135-2.744.63-4.814,1.845-4.814,4.68,0,2.61,2.295,3.915,4.725,3.915,2.88,0,5.535-1.575,6.48-3.915Z" style="stroke-width:0px;"/><path d="m272.302,464.566c0-2.97-2.25-4.859-5.58-4.859-2.745,0-5.354,1.484-6.795,4.904v14.625c0,1.079-.854,1.664-1.979,1.664-1.17,0-2.025-.585-2.025-1.664v-21.375c0-1.034.855-1.619,2.025-1.619,1.08,0,1.979.585,1.979,1.619v2.25c1.845-2.52,4.86-3.96,8.01-3.96,4.32,0,8.325,2.655,8.325,7.74v15.345c0,1.079-.855,1.664-1.98,1.664s-1.979-.585-1.979-1.664v-14.67Z" style="stroke-width:0px;"/><path d="m298.986,475.996c-1.484,2.745-4.5,4.005-7.425,4.005-5.265,0-10.395-3.42-10.395-12.149,0-8.055,5.265-11.609,10.305-11.609,3.15,0,5.94,1.034,7.515,3.329v-1.71c0-1.034.855-1.619,1.98-1.619s1.979.585,1.979,1.619v20.564c0,8.279-4.904,11.699-11.34,11.745-3.329,0-6.479-.99-8.189-2.25-1.89-1.306-.135-4.32,1.98-3.061,1.395.9,3.6,1.665,6.029,1.665,4.545,0,7.56-2.25,7.56-7.965v-2.564Zm0-4.905v-6.84c-.944-3.149-3.824-4.68-6.614-4.68-3.825,0-7.02,2.61-7.02,8.19,0,5.939,2.835,8.909,7.064,8.909,2.745,0,5.715-1.665,6.569-5.58Z" style="stroke-width:0px;"/><path d="m329.406,466.681c0,1.89-.585,2.88-3.195,2.88h-13.994c.18,5.265,3.329,8.01,7.47,8.01,3.015,0,5.039-.811,6.39-1.71,1.8-1.215,3.51,1.484,1.8,2.835-1.575,1.17-4.455,2.34-8.234,2.34-6.93,0-11.7-4.68-11.7-12.734,0-8.28,5.625-12.285,11.115-12.285,6.119,0,10.35,4.455,10.35,10.665Zm-17.145-.36h13.229c-.135-4.455-2.925-6.795-6.525-6.795-3.104,0-6.209,2.25-6.704,6.795Z" style="stroke-width:0px;"/><path d="m508.644,449.762c1.755,1.26.091,4.274-1.979,3.015-1.755-1.215-4.455-2.025-6.885-2.025-6.345,0-11.114,4.23-11.114,12.87,0,8.999,4.545,13.454,11.249,13.454,3.105,0,5.895-.945,7.74-2.25,1.89-1.215,3.914,1.71,1.755,3.285-1.936,1.484-5.535,2.699-9.585,2.699-9.225,0-15.39-5.984-15.39-17.144,0-10.89,6.615-16.56,15.075-16.56,3.779,0,7.109,1.17,9.134,2.655Z" style="stroke-width:0px;"/><path d="m514.404,468.391c0-8.189,5.13-12.555,11.385-12.555s11.295,4.365,11.295,12.555-4.86,12.689-11.295,12.689c-6.479,0-11.385-4.5-11.385-12.689Zm18.585,0c0-6.39-3.24-9.045-7.2-9.045-4.05,0-7.29,2.655-7.29,9.045,0,6.479,3.42,9.225,7.29,9.225,3.78,0,7.2-2.745,7.2-9.225Z" style="stroke-width:0px;"/><path d="m575.558,463.801v15.254c0,1.125-.899,1.71-1.979,1.71-1.17,0-2.025-.585-2.025-1.71v-14.534c0-2.925-1.755-4.859-4.949-4.859-2.43,0-4.635,1.71-5.715,4.814v14.67c0,1.079-.855,1.664-2.025,1.664-1.125,0-1.979-.585-1.979-1.664v-14.625c0-2.925-1.755-4.859-4.95-4.859-2.385,0-4.635,1.665-5.805,5.085v14.399c0,1.079-.854,1.664-1.979,1.664-1.17,0-2.025-.585-2.025-1.664v-21.375c0-1.034.855-1.619,2.025-1.619,1.08,0,1.979.585,1.979,1.619v2.431c1.665-2.565,4.095-4.141,6.975-4.141,3.195,0,5.94,1.485,7.065,4.41,1.8-2.745,4.364-4.41,7.56-4.41,4.229,0,7.829,2.565,7.829,7.74Z" style="stroke-width:0px;"/><path d="m585.729,457.771v2.07c1.71-2.43,4.32-3.78,7.335-3.78,5.399,0,10.395,3.195,10.395,12.015,0,9.045-4.814,12.645-10.35,12.645-3.149,0-5.805-1.305-7.38-3.734v11.609c0,1.08-.854,1.665-1.979,1.665-1.17,0-2.025-.585-2.025-1.665v-30.824c0-1.034.855-1.619,2.025-1.619,1.08,0,1.979.585,1.979,1.619Zm0,6.885v7.335c1.125,4.005,3.96,5.31,6.525,5.31,4.274,0,7.064-3.06,7.064-9.225s-3.24-8.459-7.155-8.459c-2.609,0-5.354,1.529-6.435,5.039Z" style="stroke-width:0px;"/><path d="m608.769,473.206v-15.39c0-1.034.855-1.664,2.025-1.664,1.125,0,1.979.63,1.979,1.664v14.625c0,2.97,2.16,4.904,5.49,4.904,2.475,0,5.354-1.574,6.885-4.77v-14.76c0-1.034.854-1.664,2.024-1.664,1.08,0,1.936.63,1.936,1.664v21.375c0,1.034-.855,1.619-1.936,1.619-1.17,0-2.024-.585-2.024-1.619v-2.431c-1.891,2.655-4.815,4.186-8.1,4.186-4.32,0-8.28-2.655-8.28-7.74Z" style="stroke-width:0px;"/><path d="m634.913,456.466h2.925v-5.444c0-1.08.854-1.665,1.979-1.665s1.936.585,1.936,1.665v5.444h6.3c1.08,0,1.62.765,1.62,1.71,0,1.035-.585,1.755-1.665,1.755h-6.255v13.095c0,3.24,1.35,4.229,3.645,4.229,1.08,0,2.205-.314,3.015-.63,1.891-.765,2.971,2.34.855,3.33-.945.45-2.745.81-4.32.81-4.725,0-7.109-2.159-7.109-7.515v-13.319h-2.97c-1.08,0-1.575-.72-1.575-1.71s.54-1.755,1.62-1.755Z" style="stroke-width:0px;"/><path d="m674.828,466.591c0,1.89-.585,2.88-3.195,2.88h-13.994c.18,5.265,3.329,8.01,7.47,8.01,3.015,0,5.039-.811,6.39-1.71,1.8-1.215,3.51,1.484,1.8,2.835-1.575,1.17-4.455,2.34-8.234,2.34-6.93,0-11.7-4.68-11.7-12.734,0-8.28,5.625-12.285,11.115-12.285,6.119,0,10.35,4.455,10.35,10.665Zm-17.145-.36h13.229c-.135-4.455-2.925-6.795-6.525-6.795-3.104,0-6.209,2.25-6.704,6.795Z" style="stroke-width:0px;"/><path d="m692.197,451.157c0-2.61,1.26-3.555,3.734-3.555h5.85c9.81,0,15.479,4.77,15.479,15.794,0,11.25-5.13,17.01-15.524,17.01h-5.76c-2.744,0-3.779-1.035-3.779-3.78v-25.469Zm9.539,25.784c7.56,0,11.385-4.186,11.385-13.545,0-8.64-4.05-12.239-11.654-12.239h-4.14c-.855,0-1.125.405-1.125,1.215v23.399c0,.81.404,1.17,1.215,1.17h4.319Z" style="stroke-width:0px;"/><path d="m724.417,446.342c1.395,0,2.52,1.079,2.52,2.52,0,1.305-1.125,2.385-2.52,2.385-1.44,0-2.521-1.08-2.521-2.385,0-1.44,1.08-2.52,2.521-2.52Zm-2.025,11.429c0-1.034.855-1.619,2.025-1.619,1.125,0,1.979.585,1.979,1.619v21.375c0,1.079-.899,1.664-1.979,1.664-1.215,0-2.025-.585-2.025-1.664v-21.375Z" style="stroke-width:0px;"/><path d="m738.681,459.931v19.215c0,1.079-.854,1.664-1.979,1.664s-2.025-.585-2.025-1.664v-19.215h-2.475c-1.08,0-1.62-.72-1.62-1.755,0-.99.495-1.71,1.575-1.71h2.52v-3.149c0-5.311,2.97-7.92,7.2-7.92,1.484,0,2.88.314,3.914.72,2.115.675,1.125,3.915-.765,3.33-.81-.315-1.755-.54-2.654-.54-2.476,0-3.69,1.575-3.69,4.455v3.104h5.67c1.035,0,1.62.765,1.62,1.755s-.54,1.71-1.62,1.71h-5.67Z" style="stroke-width:0px;"/><path d="m756.726,459.931v19.215c0,1.079-.854,1.664-1.979,1.664s-2.025-.585-2.025-1.664v-19.215h-2.475c-1.08,0-1.62-.72-1.62-1.755,0-.99.495-1.71,1.575-1.71h2.52v-3.149c0-5.311,2.97-7.92,7.2-7.92,1.484,0,2.88.314,3.914.72,2.115.675,1.125,3.915-.765,3.33-.81-.315-1.755-.54-2.654-.54-2.476,0-3.69,1.575-3.69,4.455v3.104h5.67c1.035,0,1.62.765,1.62,1.755s-.54,1.71-1.62,1.71h-5.67Z" style="stroke-width:0px;"/><path d="m951.984,451.742c0-2.475,1.125-3.51,3.689-3.51h7.425c7.2,0,11.204,3.42,11.204,9.359,0,4.545-2.43,7.694-6.614,8.955l7.38,11.834c1.35,2.16-2.25,4.275-3.51,2.115l-7.875-13.364h-7.739v12.645c0,1.079-.811,1.664-1.936,1.664-1.17,0-2.024-.585-2.024-1.664v-28.034Zm3.96,11.925h6.569c5.175,0,7.694-2.07,7.694-5.985,0-4.05-2.385-5.984-7.739-5.984h-5.49c-.81,0-1.034.27-1.034.989v10.98Z" style="stroke-width:0px;"/><path d="m1000.043,467.221c0,1.89-.585,2.88-3.195,2.88h-13.994c.18,5.265,3.329,8.01,7.47,8.01,3.015,0,5.039-.811,6.39-1.71,1.8-1.215,3.51,1.484,1.8,2.835-1.575,1.17-4.455,2.34-8.234,2.34-6.93,0-11.7-4.68-11.7-12.734,0-8.28,5.625-12.285,11.115-12.285,6.119,0,10.35,4.455,10.35,10.665Zm-17.145-.36h13.229c-.135-4.455-2.925-6.795-6.525-6.795-3.104,0-6.209,2.25-6.704,6.795Z" style="stroke-width:0px;"/><path d="m1019.482,463.351c.945,0,1.53.72,1.53,1.755,0,.99-.495,1.755-1.485,1.755h-14.084c-.99,0-1.485-.765-1.485-1.755,0-1.035.45-1.755,1.485-1.755h14.039Z" style="stroke-width:0px;"/><path d="m1029.878,458.446v2.655c1.755-2.835,4.68-4.455,7.515-4.455,1.08,0,2.565.136,3.375.721.405.27.765.81.765,1.305,0,.359-.045,2.475-1.8,2.43-.314,0-.81-.09-1.35-.225-.585-.136-1.17-.226-1.665-.226-2.79-.045-5.535,1.261-6.84,4.32v14.805c0,1.034-.854,1.619-1.935,1.619-1.215,0-2.07-.585-2.07-1.619v-21.33c0-1.034.855-1.664,2.07-1.664,1.08,0,1.935.63,1.935,1.664Z" style="stroke-width:0px;"/><path d="m1064.212,467.221c0,1.89-.585,2.88-3.195,2.88h-13.994c.18,5.265,3.329,8.01,7.47,8.01,3.015,0,5.039-.811,6.39-1.71,1.8-1.215,3.51,1.484,1.8,2.835-1.575,1.17-4.455,2.34-8.234,2.34-6.93,0-11.7-4.68-11.7-12.734,0-8.28,5.625-12.285,11.115-12.285,6.119,0,10.35,4.455,10.35,10.665Zm-17.145-.36h13.229c-.135-4.455-2.925-6.795-6.525-6.795-3.104,0-6.209,2.25-6.704,6.795Z" style="stroke-width:0px;"/><path d="m1085.586,465.106c0-2.97-2.25-4.859-5.58-4.859-2.745,0-5.354,1.484-6.795,4.904v14.625c0,1.079-.854,1.664-1.979,1.664-1.17,0-2.025-.585-2.025-1.664v-21.375c0-1.034.855-1.619,2.025-1.619,1.08,0,1.979.585,1.979,1.619v2.25c1.845-2.52,4.86-3.96,8.01-3.96,4.32,0,8.325,2.655,8.325,7.74v15.345c0,1.079-.855,1.664-1.98,1.664s-1.979-.585-1.979-1.664v-14.67Z" style="stroke-width:0px;"/><path d="m1116.23,479.776c0,1.079-.854,1.664-1.979,1.664s-1.98-.585-1.98-1.664v-1.891c-1.574,2.385-4.364,3.69-7.515,3.69-4.949,0-10.305-3.42-10.305-12.6,0-8.595,5.266-12.104,10.439-12.104,2.971,0,5.76,1.395,7.38,3.734v-12.869c0-1.035.855-1.665,1.98-1.665s1.979.63,1.979,1.665v32.039Zm-3.96-7.065v-7.199c-1.08-3.6-4.05-5.13-6.614-5.13-3.78,0-7.02,2.43-7.02,8.55,0,6.164,2.699,9.225,6.975,9.225,2.79,0,5.579-1.351,6.659-5.445Z" style="stroke-width:0px;"/><path d="m1142.69,467.221c0,1.89-.585,2.88-3.195,2.88h-13.994c.18,5.265,3.329,8.01,7.47,8.01,3.015,0,5.039-.811,6.39-1.71,1.8-1.215,3.51,1.484,1.8,2.835-1.575,1.17-4.455,2.34-8.234,2.34-6.93,0-11.7-4.68-11.7-12.734,0-8.28,5.625-12.285,11.115-12.285,6.119,0,10.35,4.455,10.35,10.665Zm-17.145-.36h13.229c-.135-4.455-2.925-6.795-6.525-6.795-3.104,0-6.209,2.25-6.704,6.795Z" style="stroke-width:0px;"/><path d="m1151.646,458.446v2.655c1.755-2.835,4.68-4.455,7.515-4.455,1.08,0,2.565.136,3.375.721.405.27.765.81.765,1.305,0,.359-.045,2.475-1.8,2.43-.314,0-.81-.09-1.35-.225-.585-.136-1.17-.226-1.665-.226-2.79-.045-5.535,1.261-6.84,4.32v14.805c0,1.034-.854,1.619-1.935,1.619-1.215,0-2.07-.585-2.07-1.619v-21.33c0-1.034.855-1.664,2.07-1.664,1.08,0,1.935.63,1.935,1.664Z" style="stroke-width:0px;"/><rect x="1.5" y="559.5" width="1245" height="516" rx="37.5" ry="37.5" style="fill:#fff; stroke-width:0px;"/><path d="m1209,561c19.8,0,36,16.2,36,36v441c0,19.8-16.2,36-36,36H39c-19.8,0-36-16.2-36-36v-441c0-19.8,16.2-36,36-36h1170m0-3H39c-21.505,0-39,17.495-39,39v441c0,21.505,17.495,39,39,39h1170c21.505,0,39-17.495,39-39v-441c0-21.505-17.495-39-39-39h0Z" style="fill:#efefef; stroke-width:0px;"/><line x1="75" y1="777" x2="165" y2="633" style="fill:none; stroke:#000; stroke-linejoin:round; stroke-width:4.5px;"/><line x1="255" y1="777" x2="165" y2="633" style="fill:none; stroke:#000; stroke-linejoin:round; stroke-width:4.5px;"/><line x1="75" y1="777" x2="75" y2="921" style="fill:none; stroke:#000; stroke-linejoin:round; stroke-width:4.5px;"/><line x1="255" y1="777" x2="201" y2="921" style="fill:none; stroke:#000; stroke-linejoin:round; stroke-width:4.5px;"/><line x1="309" y1="921" x2="255" y2="777" style="fill:none; stroke:#000; stroke-linejoin:round; stroke-width:4.5px;"/><circle cx="165" cy="633" r="33.75" style="fill:#efefef; stroke-width:0px;"/><path d="m165,601.5c17.369,0,31.5,14.131,31.5,31.5s-14.131,31.5-31.5,31.5-31.5-14.131-31.5-31.5,14.131-31.5,31.5-31.5m0-4.5c-19.882,0-36,16.118-36,36s16.118,36,36,36,36-16.118,36-36-16.118-36-36-36h0Z" style="stroke-width:0px;"/><circle cx="75" cy="777" r="33.75" style="fill:#efefef; stroke-width:0px;"/><path d="m75,745.5c17.369,0,31.5,14.131,31.5,31.5s-14.131,31.5-31.5,31.5-31.5-14.131-31.5-31.5,14.131-31.5,31.5-31.5m0-4.5c-19.882,0-36,16.118-36,36s16.118,36,36,36,36-16.118,36-36-16.118-36-36-36h0Z" style="stroke-width:0px;"/><circle cx="75" cy="921" r="33.75" style="fill:#efefef; stroke-width:0px;"/><path d="m75,889.5c17.369,0,31.5,14.131,31.5,31.5s-14.131,31.5-31.5,31.5-31.5-14.131-31.5-31.5,14.131-31.5,31.5-31.5m0-4.5c-19.882,0-36,16.118-36,36s16.118,36,36,36,36-16.118,36-36-16.118-36-36-36h0Z" style="stroke-width:0px;"/><circle cx="201" cy="921" r="33.75" style="fill:#efefef; stroke-width:0px;"/><path d="m201,889.5c17.369,0,31.5,14.131,31.5,31.5s-14.131,31.5-31.5,31.5-31.5-14.131-31.5-31.5,14.131-31.5,31.5-31.5m0-4.5c-19.882,0-36,16.118-36,36s16.118,36,36,36,36-16.118,36-36-16.118-36-36-36h0Z" style="stroke-width:0px;"/><circle cx="255" cy="777" r="33.75" style="fill:#efefef; stroke-width:0px;"/><path d="m255,745.5c17.369,0,31.5,14.131,31.5,31.5s-14.131,31.5-31.5,31.5-31.5-14.131-31.5-31.5,14.131-31.5,31.5-31.5m0-4.5c-19.882,0-36,16.118-36,36s16.118,36,36,36,36-16.118,36-36-16.118-36-36-36h0Z" style="stroke-width:0px;"/><circle cx="309" cy="921" r="33.75" style="fill:#efefef; stroke-width:0px;"/><path d="m309,889.5c17.369,0,31.5,14.131,31.5,31.5s-14.131,31.5-31.5,31.5-31.5-14.131-31.5-31.5,14.131-31.5,31.5-31.5m0-4.5c-19.882,0-36,16.118-36,36s16.118,36,36,36,36-16.118,36-36-16.118-36-36-36h0Z" style="stroke-width:0px;"/><line x1="507" y1="777" x2="597" y2="633" style="fill:none; stroke:#000; stroke-linejoin:round; stroke-width:4.5px;"/><line x1="687" y1="777" x2="597" y2="633" style="fill:none; stroke:#000; stroke-linejoin:round; stroke-width:4.5px;"/><line x1="507" y1="777" x2="507" y2="921" style="fill:none; stroke:#000; stroke-linejoin:round; stroke-width:4.5px;"/><line x1="687" y1="777" x2="633" y2="921" style="fill:none; stroke:#000; stroke-linejoin:round; stroke-width:4.5px;"/><line x1="741" y1="921" x2="687" y2="777" style="fill:none; stroke:#000; stroke-linejoin:round; stroke-width:4.5px;"/><circle cx="597" cy="633" r="33.75" style="fill:#efefef; stroke-width:0px;"/><path d="m597,601.5c17.369,0,31.5,14.131,31.5,31.5s-14.131,31.5-31.5,31.5-31.5-14.131-31.5-31.5,14.131-31.5,31.5-31.5m0-4.5c-19.882,0-36,16.118-36,36s16.118,36,36,36,36-16.118,36-36-16.118-36-36-36h0Z" style="stroke-width:0px;"/><circle cx="507" cy="777" r="33.75" style="fill:#efefef; stroke-width:0px;"/><path d="m507,745.5c17.369,0,31.5,14.131,31.5,31.5s-14.131,31.5-31.5,31.5-31.5-14.131-31.5-31.5,14.131-31.5,31.5-31.5m0-4.5c-19.882,0-36,16.118-36,36s16.118,36,36,36,36-16.118,36-36-16.118-36-36-36h0Z" style="stroke-width:0px;"/><circle cx="507" cy="921" r="33.75" style="fill:#efefef; stroke-width:0px;"/><path d="m507,889.5c17.369,0,31.5,14.131,31.5,31.5s-14.131,31.5-31.5,31.5-31.5-14.131-31.5-31.5,14.131-31.5,31.5-31.5m0-4.5c-19.882,0-36,16.118-36,36s16.118,36,36,36,36-16.118,36-36-16.118-36-36-36h0Z" style="stroke-width:0px;"/><circle cx="633" cy="921" r="33.75" style="fill:#efefef; stroke-width:0px;"/><path d="m633,889.5c17.369,0,31.5,14.131,31.5,31.5s-14.131,31.5-31.5,31.5-31.5-14.131-31.5-31.5,14.131-31.5,31.5-31.5m0-4.5c-19.882,0-36,16.118-36,36s16.118,36,36,36,36-16.118,36-36-16.118-36-36-36h0Z" style="stroke-width:0px;"/><circle cx="687" cy="777" r="33.75" style="fill:#efefef; stroke-width:0px;"/><path d="m687,745.5c17.369,0,31.5,14.131,31.5,31.5s-14.131,31.5-31.5,31.5-31.5-14.131-31.5-31.5,14.131-31.5,31.5-31.5m0-4.5c-19.882,0-36,16.118-36,36s16.118,36,36,36,36-16.118,36-36-16.118-36-36-36h0Z" style="stroke-width:0px;"/><circle cx="741" cy="921" r="33.75" style="fill:#efefef; stroke-width:0px;"/><path d="m741,889.5c17.369,0,31.5,14.131,31.5,31.5s-14.131,31.5-31.5,31.5-31.5-14.131-31.5-31.5,14.131-31.5,31.5-31.5m0-4.5c-19.882,0-36,16.118-36,36s16.118,36,36,36,36-16.118,36-36-16.118-36-36-36h0Z" style="stroke-width:0px;"/><line x1="939" y1="777" x2="1029" y2="633" style="fill:none; stroke:#000; stroke-linejoin:round; stroke-width:4.5px;"/><line x1="1119" y1="777" x2="1029" y2="633" style="fill:none; stroke:#000; stroke-linejoin:round; stroke-width:4.5px;"/><line x1="939" y1="777" x2="939" y2="921" style="fill:none; stroke:#000; stroke-linejoin:round; stroke-width:4.5px;"/><line x1="1119" y1="777" x2="1065" y2="921" style="fill:none; stroke:#000; stroke-linejoin:round; stroke-width:4.5px;"/><line x1="1173" y1="921" x2="1119" y2="777" style="fill:none; stroke:#000; stroke-linejoin:round; stroke-width:4.5px;"/><circle cx="1029" cy="633" r="33.75" style="fill:#efefef; stroke-width:0px;"/><path d="m1029,601.5c17.369,0,31.5,14.131,31.5,31.5s-14.131,31.5-31.5,31.5-31.5-14.131-31.5-31.5,14.131-31.5,31.5-31.5m0-4.5c-19.882,0-36,16.118-36,36s16.118,36,36,36,36-16.118,36-36-16.118-36-36-36h0Z" style="stroke-width:0px;"/><circle cx="939" cy="777" r="33.75" style="fill:#ed1c24; stroke-width:0px;"/><path d="m939,745.5c17.369,0,31.5,14.131,31.5,31.5s-14.131,31.5-31.5,31.5-31.5-14.131-31.5-31.5,14.131-31.5,31.5-31.5m0-4.5c-19.882,0-36,16.118-36,36s16.118,36,36,36,36-16.118,36-36-16.118-36-36-36h0Z" style="stroke-width:0px;"/><circle cx="939" cy="921" r="33.75" style="fill:#ed1c24; stroke-width:0px;"/><path d="m939,889.5c17.369,0,31.5,14.131,31.5,31.5s-14.131,31.5-31.5,31.5-31.5-14.131-31.5-31.5,14.131-31.5,31.5-31.5m0-4.5c-19.882,0-36,16.118-36,36s16.118,36,36,36,36-16.118,36-36-16.118-36-36-36h0Z" style="stroke-width:0px;"/><circle cx="1065" cy="921" r="33.75" style="fill:#efefef; stroke-width:0px;"/><path d="m1065,889.5c17.369,0,31.5,14.131,31.5,31.5s-14.131,31.5-31.5,31.5-31.5-14.131-31.5-31.5,14.131-31.5,31.5-31.5m0-4.5c-19.882,0-36,16.118-36,36s16.118,36,36,36,36-16.118,36-36-16.118-36-36-36h0Z" style="stroke-width:0px;"/><circle cx="1119" cy="777" r="33.75" style="fill:#efefef; stroke-width:0px;"/><path d="m1119,745.5c17.369,0,31.5,14.131,31.5,31.5s-14.131,31.5-31.5,31.5-31.5-14.131-31.5-31.5,14.131-31.5,31.5-31.5m0-4.5c-19.882,0-36,16.118-36,36s16.118,36,36,36,36-16.118,36-36-16.118-36-36-36h0Z" style="stroke-width:0px;"/><circle cx="1173" cy="921" r="33.75" style="fill:#efefef; stroke-width:0px;"/><path d="m1173,889.5c17.369,0,31.5,14.131,31.5,31.5s-14.131,31.5-31.5,31.5-31.5-14.131-31.5-31.5,14.131-31.5,31.5-31.5m0-4.5c-19.882,0-36,16.118-36,36s16.118,36,36,36,36-16.118,36-36-16.118-36-36-36h0Z" style="stroke-width:0px;"/><path d="m923.319,1009.156c0-2.61,1.26-3.555,3.734-3.555h5.85c9.81,0,15.479,4.77,15.479,15.794,0,11.25-5.13,17.01-15.524,17.01h-5.76c-2.745,0-3.779-1.035-3.779-3.78v-25.469Zm9.539,25.784c7.56,0,11.385-4.186,11.385-13.545,0-8.64-4.05-12.239-11.654-12.239h-4.14c-.855,0-1.125.405-1.125,1.215v23.399c0,.81.404,1.17,1.215,1.17h4.319Z" style="stroke-width:0px;"/><path d="m952.524,1021.846c0-11.024,6.119-16.739,14.309-16.739,8.146,0,14.354,5.489,14.354,16.739s-6.074,16.964-14.354,16.964-14.309-5.579-14.309-16.964Zm24.434,0c0-8.774-4.185-13.095-10.125-13.095-5.984,0-10.079,4.32-10.079,13.095,0,9.135,3.87,13.364,10.079,13.364,6.12,0,10.125-4.274,10.125-13.364Z" style="stroke-width:0px;"/><path d="m986.454,1007.986c0-1.485,1.125-2.61,2.609-2.655,2.205-.045,3.195,1.125,3.915,3.105l9.27,24.613,9.314-24.749c.675-1.8,1.8-2.97,3.646-2.97,1.619,0,2.699,1.035,2.699,2.565v29.203c0,1.08-.854,1.665-1.979,1.665s-1.98-.585-1.98-1.665v-25.469l-9.404,25.334c-.765,2.25-3.87,2.385-4.77-.09l-9.45-25.244v25.515c0,1.079-.81,1.664-1.89,1.664-1.125,0-1.979-.585-1.979-1.664v-29.159Z" style="stroke-width:0px;"/><path d="m1059.441,1007.762c1.755,1.26.091,4.274-1.979,3.015-1.755-1.215-4.455-2.025-6.885-2.025-6.345,0-11.114,4.23-11.114,12.87,0,8.999,4.545,13.454,11.249,13.454,3.105,0,5.895-.945,7.74-2.25,1.89-1.215,3.914,1.71,1.755,3.285-1.936,1.484-5.535,2.699-9.585,2.699-9.225,0-15.39-5.984-15.39-17.144,0-10.89,6.615-16.56,15.075-16.56,3.779,0,7.109,1.17,9.134,2.655Z" style="stroke-width:0px;"/><path d="m1066.281,1005.106c0-1.035.855-1.665,2.025-1.665,1.125,0,1.979.63,1.979,1.665v12.914c1.845-2.52,4.86-3.96,8.01-3.96,4.365,0,8.325,2.655,8.325,7.74v15.345c0,1.079-.855,1.664-1.98,1.664s-1.979-.585-1.979-1.664v-14.67c0-2.97-2.25-4.859-5.58-4.859-2.745,0-5.354,1.484-6.795,4.904v14.625c0,1.079-.854,1.664-1.979,1.664-1.17,0-2.025-.585-2.025-1.664v-32.039Z" style="stroke-width:0px;"/><path d="m1110.561,1021.53v15.524c0,1.125-.854,1.755-1.935,1.755-1.125,0-1.935-.63-1.935-1.619v-1.575c-1.215,1.755-4.545,3.194-7.65,3.194-4.229,0-7.649-2.475-7.649-6.975,0-4.725,3.825-6.93,7.875-7.694,2.205-.405,5.22-.36,7.335-.18v-1.98c0-3.33-2.16-4.5-5.94-4.5-1.62,0-4.185.676-5.67,1.53-2.295.99-3.284-2.34-1.439-3.24,2.069-1.125,5.444-1.8,7.92-1.8,5.13,0,9.089,2.25,9.089,7.56Zm-3.959,10.125v-4.814c-1.891-.226-4.59-.226-6.391.135-2.744.63-4.814,1.845-4.814,4.68,0,2.61,2.295,3.915,4.725,3.915,2.88,0,5.535-1.575,6.48-3.915Z" style="stroke-width:0px;"/><path d="m1132.881,1022.476c0-2.97-2.25-4.859-5.58-4.859-2.745,0-5.354,1.484-6.795,4.904v14.625c0,1.079-.854,1.664-1.979,1.664-1.17,0-2.025-.585-2.025-1.664v-21.375c0-1.034.855-1.619,2.025-1.619,1.08,0,1.979.585,1.979,1.619v2.25c1.845-2.52,4.86-3.96,8.01-3.96,4.32,0,8.325,2.655,8.325,7.74v15.345c0,1.079-.855,1.664-1.98,1.664s-1.979-.585-1.979-1.664v-14.67Z" style="stroke-width:0px;"/><path d="m1159.564,1033.905c-1.484,2.745-4.5,4.005-7.425,4.005-5.265,0-10.395-3.42-10.395-12.149,0-8.055,5.265-11.609,10.305-11.609,3.15,0,5.94,1.034,7.515,3.329v-1.71c0-1.034.855-1.619,1.98-1.619s1.979.585,1.979,1.619v20.564c0,8.279-4.904,11.699-11.34,11.745-3.329,0-6.479-.99-8.189-2.25-1.89-1.306-.135-4.32,1.98-3.061,1.395.9,3.6,1.665,6.029,1.665,4.545,0,7.56-2.25,7.56-7.965v-2.564Zm0-4.905v-6.84c-.944-3.149-3.824-4.68-6.614-4.68-3.825,0-7.02,2.61-7.02,8.19,0,5.939,2.835,8.909,7.064,8.909,2.745,0,5.715-1.665,6.569-5.58Z" style="stroke-width:0px;"/><path d="m1189.985,1024.591c0,1.89-.585,2.88-3.195,2.88h-13.994c.18,5.265,3.329,8.01,7.47,8.01,3.015,0,5.039-.811,6.39-1.71,1.8-1.215,3.51,1.484,1.8,2.835-1.575,1.17-4.455,2.34-8.234,2.34-6.93,0-11.7-4.68-11.7-12.734,0-8.28,5.625-12.285,11.115-12.285,6.119,0,10.35,4.455,10.35,10.665Zm-17.145-.36h13.229c-.135-4.455-2.925-6.795-6.525-6.795-3.104,0-6.209,2.25-6.704,6.795Z" style="stroke-width:0px;"/><path d="m1368.222,243.496c-7.627,0-14.386-5.03-17.218-12.816l-21.521-57.798c-1.76-4.784-1.19-9.759,1.548-13.685,2.879-4.127,7.982-6.691,13.317-6.691,6.74,0,12.499,4.01,14.671,10.216l9.808,28.152,10.19-28.279c2.13-6.07,7.713-9.989,14.241-9.989,5.264,0,10.298,2.559,13.139,6.677,2.668,3.866,3.202,8.706,1.465,13.278l-22.111,58.058c-3.006,7.831-9.883,12.876-17.528,12.877Z" style="stroke-width:0px;"/><path d="m1344.348,161.506c2.591,0,5.157,1.278,6.177,4.189l18.158,52.123,18.817-52.218c.968-2.797,3.344-3.995,5.758-3.995,3.919,0,7.938,3.158,6.191,7.759l-22.109,58.051c-1.805,4.704-5.483,7.081-9.118,7.081-3.562,0-7.082-2.282-8.759-6.893l-21.545-57.863c-1.846-5.019,2.323-8.235,6.431-8.235m0-18c-8.356,0-16.094,3.941-20.699,10.541-4.446,6.372-5.403,14.357-2.625,21.907l.012.034.012.033,21.526,57.812c4.158,11.339,14.217,18.662,25.647,18.662s21.578-7.313,25.922-18.63l22.126-58.094c2.809-7.394,1.908-15.262-2.465-21.6-4.564-6.616-12.245-10.566-20.547-10.566-10.397,0-19.299,6.265-22.72,15.972l-1.568,4.351-1.447-4.154c-3.463-9.892-12.556-16.268-23.175-16.268h0Z" style="fill:#fff; stroke-width:0px;"/><path d="m1415.07,242.907c-8.563,0-15.021-6.053-15.021-14.081v-43.562c0-3.479,1.221-6.587,3.305-8.992-2.703-2.828-4.34-6.667-4.34-10.954,0-9.004,7.053-16.057,16.057-16.057,8.905,0,16.15,7.203,16.15,16.057,0,4.202-1.671,8.027-4.394,10.869,2.117,2.417,3.358,5.558,3.358,9.078v43.562c0,8.027-6.498,14.081-15.115,14.081Z" style="stroke-width:0px;"/><path d="m1415.07,158.262c3.951,0,7.15,3.105,7.15,7.057,0,3.857-3.199,6.868-7.15,6.868-4.046,0-7.057-3.011-7.057-6.868,0-3.952,3.011-7.057,7.057-7.057m.094,21.922c3.104,0,6.021,1.788,6.021,5.081v43.562c0,3.387-3.011,5.081-6.115,5.081-3.199,0-6.021-1.693-6.021-5.081v-43.562c0-3.293,2.916-5.081,6.115-5.081m-.094-39.922c-6.786,0-13.119,2.62-17.833,7.378-4.658,4.702-7.224,10.98-7.224,17.679,0,4.025.936,7.89,2.705,11.347-1.079,2.646-1.669,5.544-1.669,8.599v43.562c0,7.187,3.231,13.785,8.866,18.1,4.193,3.212,9.575,4.98,15.156,4.98,13.522,0,24.115-10.138,24.115-23.081v-43.562c0-3.086-.6-6.013-1.697-8.681,1.746-3.384,2.732-7.213,2.732-11.265,0-13.816-11.282-25.057-25.15-25.057h0Z" style="fill:#fff; stroke-width:0px;"/><path d="m1439.721,242.907c-8.671,0-15.21-6.053-15.21-14.081v-43.468c0-8.027,6.539-14.081,15.21-14.081,3.456,0,6.569.986,9.054,2.69,3.586-1.848,7.53-2.878,11.457-2.878,4.058,0,9.736.755,13.854,4.329,3.024,2.563,4.903,6.776,4.932,11.067.07,4.501-1.442,8.56-4.263,11.437-2.54,2.592-5.938,4.019-9.568,4.019-1.61,0-3.226-.282-4.802-.837-.348-.091-1.414-.254-2.505-.254-1.71,0-2.612.406-3.137.907v27.068c0,8.027-6.458,14.081-15.021,14.081Z" style="stroke-width:0px;"/><path d="m1460.231,180.09c3.199,0,6.304.659,7.997,2.164,1.035.847,1.788,2.634,1.788,4.328.077,3.887-2.028,6.36-4.831,6.36-.59,0-1.211-.11-1.849-.339-1.316-.47-3.575-.752-5.457-.752-5.551,0-9.973,2.446-12.137,7.527v29.449c0,3.387-2.917,5.081-6.021,5.081-3.293,0-6.21-1.693-6.21-5.081v-43.468c0-3.293,2.917-5.081,6.21-5.081,3.104,0,6.021,1.788,6.021,5.081v3.105c3.575-5.645,9.785-8.374,14.489-8.374m0-18c-3.753,0-7.513.688-11.1,1.964-2.877-1.146-6.053-1.776-9.411-1.776-13.576,0-24.21,10.138-24.21,23.081v43.468c0,7.295,3.332,13.952,9.143,18.264,4.245,3.151,9.455,4.816,15.067,4.816,13.47,0,24.021-10.138,24.021-23.081v-17.93c.48.03.961.045,1.443.045,6.068,0,11.749-2.386,15.996-6.718,4.51-4.601,6.933-10.931,6.834-17.84-.056-6.919-3.058-13.527-8.073-17.797-6.204-5.362-14.125-6.496-19.711-6.496h0Z" style="fill:#fff; stroke-width:0px;"/><path d="m1499.748,242.625c-11.746,0-25.748-4.679-25.748-26.97v-15.75c-5.731-1.691-9.69-6.98-9.69-13.605s3.956-11.952,9.69-13.675v-1.472c0-8.027,6.499-14.081,15.116-14.081,8.563,0,15.021,6.053,15.021,14.081v.879h2.196c7.92,0,13.892,6.094,13.892,14.175,0,8.134-5.972,14.269-13.892,14.269h-2.196v12.85c1.457-.517,2.953-.778,4.453-.778,6.321,0,11.65,4.595,12.96,11.174,1.382,6.948-2.267,13.72-8.878,16.496-3.359,1.442-8.539,2.409-12.925,2.409Z" style="stroke-width:0px;"/><path d="m1489.116,166.072c3.198,0,6.021,1.693,6.021,5.081v9.879h11.196c3.293,0,4.892,2.54,4.892,5.175,0,2.728-1.693,5.269-4.892,5.269h-11.196v23.709c0,5.834,1.882,7.903,6.304,7.903,1.693,0,3.857-.659,5.551-1.223.559-.218,1.095-.318,1.599-.318,4.497,0,6.488,7.931.565,10.385-2.164.941-6.115,1.693-9.408,1.693-11.667,0-16.748-5.175-16.748-17.97v-24.18h-4.986c-3.199,0-4.704-2.446-4.704-5.175s1.6-5.269,4.798-5.269h4.893v-9.879c0-3.387,3.011-5.081,6.116-5.081m0-18c-11.99,0-21.677,7.971-23.719,18.799-6.124,4.13-10.087,11.22-10.087,19.429,0,8.016,3.795,14.961,9.69,19.106v10.249c0,11.232,2.913,19.781,8.904,26.134,6.156,6.527,14.851,9.837,25.844,9.837,5.654,0,11.94-1.197,16.451-3.128,10.576-4.463,16.403-15.349,14.178-26.532-1.431-7.191-5.852-12.944-11.78-16.004,6.431-4.076,10.628-11.326,10.628-19.755,0-11.038-7.254-20.044-17.305-22.507-1.42-4.188-4.042-7.885-7.649-10.647-4.193-3.211-9.575-4.98-15.155-4.98h0Z" style="fill:#fff; stroke-width:0px;"/><path d="m1562.6,243.001c-3.593,0-6.817-1.045-9.355-2.842-3.91,1.853-8.279,2.842-12.85,2.842-16.046,0-27.252-11.052-27.252-26.876v-30.672c0-8.081,6.498-14.175,15.115-14.175,8.563,0,15.021,6.094,15.021,14.175v28.226c0,.112.005.207.012.285.253.062.663.124,1.244.124.476,0,1.826-.479,2.948-1.896v-26.738c0-8.081,6.499-14.175,15.116-14.175,8.563,0,15.021,6.094,15.021,14.175v43.562c0,7.974-6.458,13.986-15.021,13.986Z" style="stroke-width:0px;"/><path d="m1562.6,180.278c3.104,0,6.021,1.788,6.021,5.175v43.562c0,3.293-2.917,4.986-6.021,4.986s-6.116-1.693-6.116-4.986v-2.728c-3.951,5.174-9.879,7.715-16.089,7.715-9.784,0-18.252-6.021-18.252-17.876v-30.672c0-3.387,2.916-5.175,6.115-5.175,3.104,0,6.021,1.788,6.021,5.175v28.226c0,5.551,3.575,9.409,10.256,9.409,4.14,0,9.314-2.822,11.948-8.468v-29.167c0-3.387,3.011-5.175,6.116-5.175m0-18c-6.801,0-12.861,2.574-17.205,6.787-4.327-4.213-10.363-6.787-17.137-6.787-13.522,0-24.115,10.18-24.115,23.175v30.672c0,10.675,4.069,20.193,11.457,26.801,6.544,5.853,15.349,9.076,24.795,9.076,4.279,0,8.425-.67,12.315-1.949,3.003,1.255,6.346,1.949,9.89,1.949,13.47,0,24.021-10.097,24.021-22.986v-43.562c0-12.995-10.552-23.175-24.021-23.175h0Z" style="fill:#fff; stroke-width:0px;"/><path d="m1616.231,243.001c-3.41,0-6.517-1.032-8.996-2.791-4.126,1.639-8.614,2.414-12.55,2.414-14.771,0-25.089-10.046-25.089-24.43,0-7.425,2.938-13.773,8.181-18.397-2.481-1.938-4.313-4.766-5.058-8.121-1.497-6.748,1.682-13.452,7.74-16.372,5.429-2.734,13.725-4.497,21.188-4.497,17.927,0,29.511,10.438,29.511,26.594v31.143c0,8.242-6.417,14.457-14.927,14.457Z" style="stroke-width:0px;"/><path d="m1601.647,179.808c11.573,0,20.511,5.269,20.511,17.594v31.143c0,3.575-2.822,5.457-5.927,5.457-3.011,0-5.834-1.882-5.834-4.986v-1.788c-2.729,3.952-9.597,6.398-15.712,6.398-8.938,0-16.089-5.269-16.089-15.43,0-11.196,9.503-15.712,17.688-17.029,2.164-.376,4.774-.518,7.266-.518s4.87.141,6.564.33v-2.54c0-5.739-3.293-7.997-11.29-7.997-2.917,0-7.621,1.317-10.538,2.634-.862.366-1.657.529-2.378.529-5.021,0-6.416-7.916-1.48-10.22,4.423-2.258,11.479-3.575,17.218-3.575m-3.387,44.126c6.21,0,10.632-3.199,11.854-7.903v-6.586c-1.364-.282-3.387-.423-5.433-.423s-4.116.141-5.575.423c-4.422.941-8.374,2.729-8.374,7.998,0,4.516,3.952,6.492,7.527,6.492m3.387-62.126c-6.962,0-17.194,1.428-25.167,5.424-9.799,4.761-14.952,15.558-12.548,26.393.47,2.119,1.209,4.111,2.174,5.94-3.559,5.32-5.51,11.65-5.51,18.628,0,19.371,14.336,33.43,34.089,33.43,3.494,0,7.544-.495,11.629-1.633,3.005,1.294,6.358,2.009,9.917,2.009,13.417,0,23.927-10.304,23.927-23.457v-31.143c0-11.375-4.573-21.19-12.877-27.637-6.705-5.205-15.569-7.957-25.634-7.957h0Z" style="fill:#fff; stroke-width:0px;"/><path d="m1640.319,242.907c-8.563,0-15.021-6.053-15.021-14.081v-66.895c0-8.027,6.458-14.081,15.021-14.081,8.617,0,15.115,6.053,15.115,14.081v66.895c0,8.027-6.498,14.081-15.115,14.081Z" style="stroke-width:0px;"/><path d="m1640.319,156.851c3.199,0,6.115,1.788,6.115,5.081v66.895c0,3.387-2.916,5.081-6.115,5.081-3.104,0-6.021-1.693-6.021-5.081v-66.895c0-3.293,2.822-5.081,6.021-5.081m0-18c-13.47,0-24.021,10.138-24.021,23.081v66.895c0,12.942,10.552,23.081,24.021,23.081s24.115-10.138,24.115-23.081v-66.895c0-12.942-10.593-23.081-24.115-23.081h0Z" style="fill:#fff; stroke-width:0px;"/><path d="m1351.653,354.688c-12.417,0-19.256-6.838-19.256-19.255v-50.618c0-11.585,7.233-18.502,19.35-18.502h12.043c26.349,0,41.46,15.489,41.46,42.495,0,14.02-3.35,25.097-9.955,32.924-7.255,8.598-17.95,12.957-31.787,12.957h-11.854Zm12.043-28.35c4.434,0,11.134,0,11.134-17.626,0-11.496-4.145-13.675-11.793-13.675h-.408v31.301h1.067Z" style="stroke-width:0px;"/><path d="m1363.79,275.312c20.604,0,32.46,10.443,32.46,33.495s-9.974,36.881-32.742,36.881h-11.854c-7.433,0-10.256-2.917-10.256-10.255v-50.618c0-7.056,3.764-9.502,10.35-9.502h12.043m-7.057,60.026h6.963c13.83,0,20.134-9.22,20.134-26.626,0-15.43-7.244-22.675-20.793-22.675h-6.68c-2.07,0-2.729,1.035-2.729,3.105v43.185c0,2.07,1.129,3.011,3.104,3.011m7.057-78.026h-12.043c-7.8,0-14.285,2.142-19.275,6.367-4.14,3.505-9.074,10.016-9.074,21.135v50.618c0,8.587,2.546,15.505,7.568,20.563,5.069,5.105,12.029,7.693,20.688,7.693h11.854c31.773,0,50.742-20.516,50.742-54.881,0-16.232-4.653-29.075-13.83-38.174-8.915-8.839-21.239-13.321-36.63-13.321h0Z" style="fill:#fff; stroke-width:0px;"/><path d="m1435.863,355.628c-18.562,0-40.236-11.893-40.236-45.411,0-13.892,4.076-25.462,11.788-33.461,7.138-7.403,17.24-11.48,28.448-11.48,11.407,0,21.234,3.828,28.418,11.071,5.478,5.522,12.007,15.881,12.007,33.87,0,31.37-20.304,45.411-40.425,45.411Zm0-61.25c-2.582,0-9.44,0-9.44,15.839,0,16.497,6.376,16.497,9.44,16.497,2.358,0,9.535,0,9.535-16.497,0-15.839-6.928-15.839-9.535-15.839Z" style="stroke-width:0px;"/><path d="m1435.863,274.276c16.842,0,31.425,10.444,31.425,35.941,0,24.838-14.489,36.411-31.425,36.411s-31.236-11.008-31.236-36.411c0-24.65,14.301-35.941,31.236-35.941m0,61.438c10.443,0,18.535-7.245,18.535-25.497,0-17.782-8.186-24.839-18.535-24.839-10.537,0-18.44,7.151-18.44,24.839,0,18.347,7.621,25.497,18.44,25.497m0-79.438c-13.674,0-26.078,5.055-34.927,14.233-6.528,6.771-14.309,19.156-14.309,39.708,0,20.931,7.768,33.413,14.284,40.199,8.801,9.165,21.214,14.212,34.952,14.212s26.154-5.131,35.069-14.447c6.549-6.844,14.356-19.334,14.356-39.964,0-21.052-7.949-33.485-14.617-40.208-8.784-8.856-21.146-13.733-34.808-13.733h0Zm.02,59.775c-.25-1.317-.461-3.206-.461-5.834,0-2.42.219-4.215.479-5.465.269,1.237.497,3.03.497,5.465,0,2.577-.233,4.491-.515,5.834h0Z" style="fill:#fff; stroke-width:0px;"/><path d="m1483.756,355.816c-8.563,0-15.021-6.053-15.021-14.081v-59.18c0-9.176,7.217-16.517,16.43-16.713l.435-.004c9.411,0,16.033,5.021,19.681,14.923l7.939,22.22,8.072-22.522c3.332-9.292,10.329-14.62,19.199-14.62,9.582,0,16.809,7.065,16.809,16.433v59.368c0,8.027-6.458,14.081-15.021,14.081-6.861,0-12.371-3.886-14.29-9.56-2.755,5.863-8.415,9.536-14.875,9.536-6.548,0-12.315-3.881-15.067-10.013-1.713,5.982-7.288,10.13-14.289,10.13Z" style="stroke-width:0px;"/><path d="m1485.598,274.839c6.507,0,9.284,3.736,11.236,9.034l16.371,45.82,16.559-46.196c1.788-4.987,5.081-8.656,10.727-8.656,4.704,0,7.809,3.011,7.809,7.433v59.368c0,3.387-2.822,5.081-6.021,5.081-3.104,0-6.021-1.694-6.021-5.081v-46.667l-16.089,46.573c-1.184,3.362-4.108,5.151-7.056,5.151-2.909,0-5.842-1.742-7.15-5.434l-16.371-46.102v46.572c0,3.387-2.823,5.081-5.834,5.081-3.104,0-6.021-1.693-6.021-5.081v-59.18c0-4.14,3.199-7.621,7.621-7.715.081-.001.163-.002.243-.002m0-18h-.012c-.162,0-.326.001-.489.004h-.063s-.063.002-.063.002c-14.152.302-25.238,11.595-25.238,25.711v59.18c0,12.942,10.552,23.081,24.021,23.081,5.595,0,10.683-1.777,14.707-4.793,4.18,2.99,9.237,4.675,14.648,4.675,5.313,0,10.359-1.683,14.54-4.624,4.025,2.928,9.077,4.648,14.626,4.648,5.581,0,10.964-1.769,15.157-4.981,5.634-4.316,8.865-10.913,8.865-18.1v-59.368c0-7.103-2.733-13.631-7.695-18.379-4.753-4.549-11.186-7.054-18.114-7.054-12.349,0-22.467,7.269-27.268,19.509-6.841-16.937-20.169-19.51-27.623-19.51h0Z" style="fill:#fff; stroke-width:0px;"/><path d="m1387.5,165.601c2.54-7.339,14.771-3.669,11.948,3.764l-22.109,58.051c-3.575,9.314-14.489,9.502-17.877.188l-21.545-57.863c-3.011-8.185,9.973-11.572,12.607-4.045l18.158,52.124,18.817-52.218Z" style="stroke-width:0px;"/><path d="m1415.07,158.262c3.951,0,7.15,3.105,7.15,7.057,0,3.857-3.199,6.868-7.15,6.868-4.046,0-7.057-3.011-7.057-6.868,0-3.952,3.011-7.057,7.057-7.057Zm-6.021,27.003c0-3.293,2.916-5.081,6.115-5.081,3.104,0,6.021,1.788,6.021,5.081v43.562c0,3.387-3.011,5.081-6.115,5.081-3.199,0-6.021-1.693-6.021-5.081v-43.562Z" style="stroke-width:0px;"/><path d="m1445.742,185.359v3.105c3.575-5.645,9.785-8.374,14.489-8.374,3.199,0,6.304.659,7.997,2.164,1.035.847,1.788,2.634,1.788,4.328.094,4.705-3.011,7.339-6.681,6.021-1.316-.47-3.575-.752-5.457-.752-5.551,0-9.973,2.446-12.137,7.527v29.449c0,3.387-2.917,5.081-6.021,5.081-3.293,0-6.21-1.693-6.21-5.081v-43.468c0-3.293,2.917-5.081,6.21-5.081,3.104,0,6.021,1.788,6.021,5.081Z" style="stroke-width:0px;"/><path d="m1478.107,181.031h4.893v-9.879c0-3.387,3.011-5.081,6.116-5.081,3.198,0,6.021,1.693,6.021,5.081v9.879h11.196c3.293,0,4.892,2.54,4.892,5.175,0,2.729-1.693,5.269-4.892,5.269h-11.196v23.709c0,5.833,1.882,7.903,6.304,7.903,1.693,0,3.857-.659,5.551-1.223,5.551-2.164,8.75,7.339,2.164,10.067-2.164.941-6.115,1.693-9.408,1.693-11.667,0-16.748-5.175-16.748-17.97v-24.18h-4.986c-3.199,0-4.704-2.446-4.704-5.175s1.6-5.269,4.798-5.269Z" style="stroke-width:0px;"/><path d="m1522.143,216.125v-30.672c0-3.387,2.916-5.175,6.115-5.175,3.104,0,6.021,1.788,6.021,5.175v28.226c0,5.551,3.575,9.409,10.256,9.409,4.14,0,9.314-2.822,11.948-8.468v-29.167c0-3.387,3.011-5.175,6.116-5.175s6.021,1.788,6.021,5.175v43.562c0,3.293-2.917,4.986-6.021,4.986s-6.116-1.693-6.116-4.986v-2.729c-3.951,5.174-9.879,7.715-16.089,7.715-9.784,0-18.252-6.021-18.252-17.876Z" style="stroke-width:0px;"/><path d="m1622.158,197.402v31.143c0,3.575-2.822,5.457-5.927,5.457-3.011,0-5.834-1.882-5.834-4.986v-1.788c-2.729,3.952-9.597,6.398-15.712,6.398-8.938,0-16.089-5.269-16.089-15.43,0-11.196,9.503-15.712,17.688-17.029,4.328-.753,10.443-.564,13.83-.188v-2.541c0-5.739-3.293-7.997-11.29-7.997-2.917,0-7.621,1.317-10.538,2.634-6.868,2.917-9.502-7.057-3.857-9.691,4.423-2.258,11.479-3.575,17.218-3.575,11.573,0,20.511,5.269,20.511,17.594Zm-12.043,18.629v-6.586c-2.729-.564-8.091-.564-11.008,0-4.422.941-8.374,2.729-8.374,7.998,0,4.516,3.952,6.492,7.527,6.492,6.21,0,10.632-3.199,11.854-7.903Z" style="stroke-width:0px;"/><path d="m1634.298,161.932c0-3.293,2.822-5.081,6.021-5.081s6.115,1.788,6.115,5.081v66.895c0,3.387-2.916,5.081-6.115,5.081-3.104,0-6.021-1.693-6.021-5.081v-66.895Z" style="stroke-width:0px;"/><path d="m1341.397,284.814c0-7.056,3.764-9.502,10.35-9.502h12.043c20.604,0,32.46,10.443,32.46,33.495s-9.974,36.881-32.742,36.881h-11.854c-7.433,0-10.256-2.917-10.256-10.255v-50.618Zm22.299,50.524c13.83,0,20.134-9.22,20.134-26.626,0-15.43-7.244-22.675-20.793-22.675h-6.68c-2.07,0-2.729,1.035-2.729,3.105v43.185c0,2.07,1.129,3.011,3.104,3.011h6.963Z" style="stroke-width:0px;"/><path d="m1404.627,310.217c0-24.65,14.301-35.941,31.236-35.941,16.842,0,31.425,10.444,31.425,35.941,0,24.838-14.489,36.411-31.425,36.411s-31.236-11.008-31.236-36.411Zm49.771,0c0-17.782-8.186-24.839-18.535-24.839-10.537,0-18.44,7.151-18.44,24.839,0,18.347,7.621,25.497,18.44,25.497,10.443,0,18.535-7.245,18.535-25.497Z" style="stroke-width:0px;"/><path d="m1477.734,282.556c0-4.14,3.199-7.621,7.621-7.715,6.681-.094,9.503,3.669,11.479,9.032l16.371,45.82,16.559-46.196c1.788-4.987,5.081-8.656,10.727-8.656,4.704,0,7.809,3.011,7.809,7.433v59.368c0,3.387-2.822,5.081-6.021,5.081-3.104,0-6.021-1.694-6.021-5.081v-46.667l-16.089,46.573c-2.352,6.68-11.572,7.15-14.206-.282l-16.371-46.102v46.572c0,3.387-2.823,5.081-5.834,5.081-3.104,0-6.021-1.693-6.021-5.081v-59.18Z" style="stroke-width:0px;"/><path d="m1351.653,856.232c-12.417,0-19.256-6.838-19.256-19.255v-50.618c0-11.585,7.233-18.502,19.35-18.502h12.043c26.349,0,41.46,15.488,41.46,42.494,0,14.02-3.35,25.097-9.955,32.924-7.255,8.598-17.95,12.957-31.787,12.957h-11.854Zm12.043-28.35c4.434,0,11.134,0,11.134-17.625,0-11.496-4.145-13.676-11.793-13.676h-.408v31.301h1.067Z" style="stroke-width:0px;"/><path d="m1363.79,776.857c20.604,0,32.46,10.443,32.46,33.494s-9.974,36.881-32.742,36.881h-11.854c-7.433,0-10.256-2.916-10.256-10.255v-50.618c0-7.057,3.764-9.502,10.35-9.502h12.043m-7.057,60.025h6.963c13.83,0,20.134-9.22,20.134-26.625,0-15.431-7.244-22.676-20.793-22.676h-6.68c-2.07,0-2.729,1.035-2.729,3.105v43.186c0,2.069,1.129,3.01,3.104,3.01m7.057-78.025h-12.043c-7.799,0-14.284,2.142-19.274,6.366-4.14,3.505-9.075,10.016-9.075,21.136v50.618c0,8.587,2.546,15.506,7.568,20.563,5.068,5.104,12.029,7.692,20.688,7.692h11.854c31.773,0,50.742-20.516,50.742-54.881,0-16.231-4.653-29.075-13.83-38.173-8.915-8.839-21.239-13.321-36.63-13.321h0Z" style="fill:#fff; stroke-width:0px;"/><path d="m1435.863,857.174c-18.562,0-40.236-11.893-40.236-45.411,0-13.892,4.076-25.462,11.788-33.461,7.138-7.402,17.24-11.479,28.448-11.479,11.407,0,21.234,3.828,28.418,11.071,5.478,5.521,12.007,15.881,12.007,33.869,0,31.37-20.304,45.411-40.425,45.411Zm0-61.25c-2.582,0-9.44,0-9.44,15.839,0,16.497,6.376,16.497,9.44,16.497,2.358,0,9.535,0,9.535-16.497,0-15.839-6.928-15.839-9.535-15.839Z" style="stroke-width:0px;"/><path d="m1435.863,775.822c16.842,0,31.425,10.443,31.425,35.94,0,24.839-14.489,36.411-31.425,36.411s-31.236-11.008-31.236-36.411c0-24.65,14.301-35.94,31.236-35.94m0,61.438c10.443,0,18.535-7.244,18.535-25.497,0-17.782-8.186-24.839-18.535-24.839-10.537,0-18.44,7.15-18.44,24.839,0,18.347,7.621,25.497,18.44,25.497m0-79.438c-13.674,0-26.078,5.055-34.927,14.233-6.528,6.771-14.309,19.155-14.309,39.708,0,20.931,7.768,33.414,14.284,40.2,8.801,9.164,21.214,14.212,34.952,14.212s26.154-5.131,35.069-14.447c6.549-6.844,14.356-19.334,14.356-39.965,0-21.052-7.949-33.485-14.617-40.208-8.784-8.856-21.146-13.733-34.808-13.733h0Zm.02,59.774c-.25-1.317-.461-3.206-.461-5.834,0-2.42.219-4.215.479-5.466.269,1.237.497,3.03.497,5.466,0,2.577-.233,4.491-.515,5.834h0Z" style="fill:#fff; stroke-width:0px;"/><path d="m1483.756,857.361c-8.563,0-15.021-6.053-15.021-14.08v-59.18c0-9.177,7.217-16.518,16.431-16.713l.434-.004c9.411,0,16.032,5.021,19.681,14.922l7.939,22.221,8.073-22.521c3.331-9.291,10.328-14.619,19.198-14.619,9.582,0,16.809,7.064,16.809,16.433v59.368c0,8.027-6.458,14.08-15.021,14.08-6.861,0-12.371-3.886-14.29-9.559-2.755,5.862-8.415,9.535-14.875,9.536-6.547,0-12.314-3.883-15.067-10.014-1.713,5.981-7.288,10.13-14.289,10.13Z" style="stroke-width:0px;"/><path d="m1485.598,776.385c6.507,0,9.284,3.736,11.236,9.033l16.371,45.82,16.559-46.195c1.788-4.987,5.081-8.656,10.727-8.656,4.704,0,7.809,3.01,7.809,7.433v59.368c0,3.387-2.822,5.08-6.021,5.08-3.104,0-6.021-1.693-6.021-5.08v-46.667l-16.089,46.573c-1.184,3.362-4.107,5.151-7.055,5.151-2.909,0-5.843-1.742-7.151-5.434l-16.371-46.102v46.572c0,3.387-2.823,5.08-5.834,5.08-3.104,0-6.021-1.693-6.021-5.08v-59.18c0-4.141,3.199-7.621,7.621-7.715.081-.001.163-.002.243-.002m0-18h-.012c-.162,0-.326.001-.489.004-.042,0-.083.001-.125.002-14.153.3-25.24,11.594-25.24,25.711v59.18c0,12.942,10.552,23.08,24.021,23.08,5.595,0,10.683-1.777,14.707-4.792,4.18,2.99,9.238,4.676,14.648,4.676,5.313,0,10.359-1.684,14.54-4.625,4.024,2.927,9.078,4.647,14.626,4.647,5.58,0,10.962-1.769,15.155-4.98,5.635-4.316,8.866-10.913,8.866-18.1v-59.368c0-7.104-2.733-13.631-7.696-18.38-4.753-4.548-11.186-7.052-18.113-7.052-12.349,0-22.467,7.268-27.268,19.508-6.841-16.938-20.169-19.51-27.623-19.51h0Z" style="fill:#fff; stroke-width:0px;"/><path d="m1341.397,786.359c0-7.057,3.764-9.502,10.35-9.502h12.043c20.604,0,32.46,10.443,32.46,33.494s-9.974,36.881-32.742,36.881h-11.854c-7.433,0-10.256-2.916-10.256-10.255v-50.618Zm22.299,50.523c13.83,0,20.134-9.22,20.134-26.625,0-15.431-7.244-22.676-20.793-22.676h-6.68c-2.07,0-2.729,1.035-2.729,3.105v43.186c0,2.069,1.129,3.01,3.104,3.01h6.963Z" style="stroke-width:0px;"/><path d="m1404.627,811.763c0-24.65,14.301-35.94,31.236-35.94,16.842,0,31.425,10.443,31.425,35.94,0,24.839-14.489,36.411-31.425,36.411s-31.236-11.008-31.236-36.411Zm49.771,0c0-17.782-8.186-24.839-18.535-24.839-10.537,0-18.44,7.15-18.44,24.839,0,18.347,7.621,25.497,18.44,25.497,10.443,0,18.535-7.244,18.535-25.497Z" style="stroke-width:0px;"/><path d="m1477.734,784.102c0-4.141,3.199-7.621,7.621-7.715,6.681-.094,9.503,3.669,11.479,9.031l16.371,45.82,16.559-46.195c1.788-4.987,5.081-8.656,10.727-8.656,4.704,0,7.809,3.01,7.809,7.433v59.368c0,3.387-2.822,5.08-6.021,5.08-3.104,0-6.021-1.693-6.021-5.08v-46.667l-16.089,46.573c-2.352,6.68-11.572,7.15-14.206-.283l-16.371-46.102v46.572c0,3.387-2.823,5.08-5.834,5.08-3.104,0-6.021-1.693-6.021-5.08v-59.18Z" style="stroke-width:0px;"/></g></svg>