<?xml version="1.0" encoding="UTF-8"?><svg id="_레이어_2" xmlns="http://www.w3.org/2000/svg" width="828" height="783" viewBox="0 0 828 783"><g id="_레이어_1-2"><rect x="108" y="216" width="450" height="135" rx="29" ry="29" style="fill:#fff; stroke-width:0px;"/><rect x="108" y="432" width="450" height="135" rx="29" ry="29" style="fill:#fff; stroke-width:0px;"/><rect y="648" width="189" height="135" rx="29" ry="29" style="fill:#fff; stroke-width:0px;"/><rect x="189" y="648" width="288" height="135" rx="29" ry="29" style="fill:#fff; stroke-width:0px;"/><rect x="477" y="648" width="225" height="135" rx="29" ry="29" style="fill:#fff; stroke-width:0px;"/><rect x="108" width="450" height="135" rx="29" ry="29" style="fill:#fff; stroke-width:0px;"/><rect x="684" y="108" width="144" height="333" rx="29" ry="29" style="fill:#fff; stroke-width:0px;"/><path d="m332.995,229.5c-1.25,0-2.444-.521-3.295-1.436l-20.444-21.99c-1.691-1.819-1.588-4.665.229-6.357l3.662-3.41c.834-.776,1.931-1.207,3.067-1.207.054,0,.108,0,.163.003,1.193.043,2.321.559,3.134,1.434l6.491,6.985v-77.521c0-2.485,2.015-4.5,4.5-4.5h5c2.485,0,4.5,2.015,4.5,4.5v77.514l6.486-6.978c.813-.875,1.94-1.39,3.134-1.433.054-.002.108-.003.162-.003,1.136,0,2.232.43,3.067,1.207l3.662,3.41c1.818,1.693,1.92,4.539.229,6.358l-20.449,21.99c-.852.916-2.045,1.436-3.295,1.436h0Z" style="stroke-width:0px;"/><path d="m335.5,126v88.964l14.282-15.364,3.662,3.411-20.449,21.99-20.444-21.99,3.662-3.411,14.287,15.374v-88.974h5m0-9h-5c-4.971,0-9,4.029-9,9v66.316c-1.437-1.043-3.162-1.646-4.962-1.711-.108-.004-.217-.006-.325-.006-2.272,0-4.465.86-6.134,2.414l-3.662,3.411c-3.635,3.386-3.84,9.076-.458,12.714l20.444,21.99c1.703,1.831,4.09,2.872,6.591,2.872,2.501,0,4.888-1.04,6.591-2.871l20.449-21.99c3.383-3.638,3.179-9.329-.457-12.715l-3.662-3.411c-1.668-1.554-3.862-2.414-6.134-2.414-.108,0-.216.002-.324.006-1.798.065-3.522.666-4.958,1.707v-66.312c0-4.971-4.029-9-9-9h0Z" style="fill:#fff; stroke-width:0px;"/><path d="m332.995,445.5c-1.25,0-2.444-.521-3.295-1.436l-20.444-21.99c-1.691-1.819-1.588-4.665.229-6.357l3.662-3.41c.834-.776,1.931-1.207,3.067-1.207.054,0,.108,0,.163.003,1.193.043,2.321.559,3.134,1.434l6.491,6.985v-77.521c0-2.485,2.015-4.5,4.5-4.5h5c2.485,0,4.5,2.015,4.5,4.5v77.514l6.486-6.978c.813-.875,1.94-1.39,3.134-1.433.054-.002.108-.003.162-.003,1.136,0,2.232.43,3.067,1.207l3.662,3.41c1.818,1.693,1.92,4.539.229,6.358l-20.449,21.99c-.852.916-2.045,1.436-3.295,1.436h0Z" style="stroke-width:0px;"/><path d="m335.5,342v88.964l14.282-15.364,3.662,3.411-20.449,21.99-20.444-21.99,3.662-3.411,14.287,15.374v-88.974h5m0-9h-5c-4.971,0-9,4.029-9,9v66.316c-1.437-1.043-3.162-1.646-4.962-1.711-.108-.004-.217-.006-.325-.006-2.272,0-4.465.86-6.134,2.414l-3.662,3.411c-3.635,3.386-3.84,9.076-.458,12.714l20.444,21.99c1.703,1.831,4.09,2.872,6.591,2.872,2.501,0,4.888-1.04,6.591-2.871l20.449-21.99c3.383-3.638,3.179-9.329-.457-12.715l-3.662-3.411c-1.668-1.554-3.862-2.414-6.134-2.414-.108,0-.216.002-.324.006-1.798.065-3.522.666-4.958,1.707v-66.312c0-4.971-4.029-9-9-9h0Z" style="fill:#fff; stroke-width:0px;"/><path d="m332.995,661.5c-1.25,0-2.444-.521-3.295-1.436l-20.444-21.99c-1.691-1.819-1.588-4.665.229-6.357l3.662-3.41c.834-.777,1.931-1.207,3.067-1.207.054,0,.108,0,.163.003,1.193.043,2.321.559,3.134,1.434l6.491,6.984v-77.521c0-2.485,2.015-4.5,4.5-4.5h5c2.485,0,4.5,2.015,4.5,4.5v77.514l6.486-6.978c.813-.875,1.94-1.391,3.134-1.434.054-.002.108-.003.162-.003,1.136,0,2.232.43,3.067,1.207l3.662,3.41c1.818,1.692,1.92,4.538.229,6.357l-20.449,21.99c-.852.915-2.045,1.436-3.295,1.436h0Z" style="stroke-width:0px;"/><path d="m335.5,558v88.964l14.282-15.364,3.662,3.411-20.449,21.99-20.444-21.99,3.662-3.411,14.287,15.374v-88.974h5m0-9h-5c-4.971,0-9,4.029-9,9v66.316c-1.437-1.043-3.162-1.646-4.962-1.711-.108-.004-.217-.006-.325-.006-2.272,0-4.465.86-6.134,2.414l-3.662,3.411c-3.635,3.385-3.84,9.076-.458,12.714l20.444,21.99c1.703,1.831,4.09,2.872,6.591,2.872,2.501,0,4.888-1.04,6.591-2.871l20.449-21.99c3.383-3.638,3.179-9.329-.457-12.715l-3.662-3.411c-1.669-1.554-3.862-2.414-6.134-2.414-.108,0-.216.002-.324.006-1.799.065-3.522.666-4.958,1.707v-66.313c0-4.971-4.029-9-9-9h0Z" style="fill:#fff; stroke-width:0px;"/><path d="m143.995,661.5c-1.25,0-2.444-.521-3.295-1.436l-20.444-21.99c-1.691-1.819-1.588-4.665.229-6.357l3.662-3.41c.834-.777,1.931-1.207,3.067-1.207.054,0,.108,0,.163.003,1.193.043,2.321.559,3.134,1.434l6.491,6.984v-77.521c0-2.485,2.015-4.5,4.5-4.5h5c2.485,0,4.5,2.015,4.5,4.5v77.514l6.486-6.978c.813-.875,1.94-1.391,3.134-1.434.054-.002.108-.003.162-.003,1.136,0,2.232.43,3.067,1.207l3.662,3.41c1.818,1.692,1.92,4.538.229,6.357l-20.449,21.99c-.852.915-2.045,1.436-3.295,1.436h0Z" style="stroke-width:0px;"/><path d="m146.5,558v88.964l14.282-15.364,3.662,3.411-20.449,21.99-20.444-21.99,3.662-3.411,14.287,15.374v-88.974h5m0-9h-5c-4.971,0-9,4.029-9,9v66.316c-1.437-1.043-3.162-1.646-4.962-1.711-.108-.004-.217-.006-.325-.006-2.272,0-4.465.86-6.134,2.414l-3.662,3.411c-3.635,3.386-3.84,9.076-.458,12.714l20.444,21.99c1.703,1.831,4.09,2.872,6.591,2.872,2.501,0,4.888-1.04,6.591-2.871l20.449-21.99c3.383-3.638,3.179-9.329-.457-12.715l-3.662-3.411c-1.669-1.554-3.862-2.414-6.134-2.414-.108,0-.216.002-.324.006-1.799.065-3.522.666-4.958,1.707v-66.313c0-4.971-4.029-9-9-9h0Z" style="fill:#fff; stroke-width:0px;"/><path d="m521.995,661.5c-1.25,0-2.444-.521-3.295-1.436l-20.444-21.99c-1.691-1.819-1.588-4.665.229-6.357l3.662-3.41c.834-.777,1.931-1.207,3.067-1.207.054,0,.108,0,.163.003,1.193.043,2.321.559,3.134,1.434l6.491,6.984v-77.521c0-2.485,2.015-4.5,4.5-4.5h5c2.485,0,4.5,2.015,4.5,4.5v77.514l6.486-6.978c.813-.875,1.94-1.391,3.134-1.434.054-.002.108-.003.162-.003,1.136,0,2.232.43,3.067,1.207l3.662,3.41c1.818,1.692,1.92,4.538.229,6.357l-20.449,21.99c-.852.915-2.045,1.436-3.295,1.436h0Z" style="stroke-width:0px;"/><path d="m524.5,558v88.964l14.282-15.364,3.662,3.411-20.449,21.99-20.444-21.99,3.662-3.411,14.287,15.374v-88.974h5m0-9h-5c-4.971,0-9,4.029-9,9v66.316c-1.437-1.043-3.162-1.646-4.962-1.711-.108-.004-.217-.006-.325-.006-2.272,0-4.465.86-6.134,2.414l-3.662,3.411c-3.635,3.385-3.84,9.076-.458,12.714l20.444,21.99c1.703,1.831,4.09,2.872,6.591,2.872,2.501,0,4.888-1.04,6.591-2.871l20.449-21.99c3.383-3.638,3.179-9.329-.457-12.715l-3.662-3.411c-1.669-1.554-3.862-2.414-6.134-2.414-.108,0-.216.002-.324.006-1.799.065-3.522.666-4.958,1.707v-66.313c0-4.971-4.029-9-9-9h0Z" style="fill:#fff; stroke-width:0px;"/><path d="m671.011,321.949c-1.206,0-2.408-.481-3.294-1.433l-3.41-3.662c-.814-.874-1.247-2.036-1.204-3.229s.559-2.321,1.434-3.134l6.984-6.491h-59.521c-2.485,0-4.5-2.015-4.5-4.5v-5c0-2.485,2.015-4.5,4.5-4.5h59.514l-6.978-6.486c-.875-.813-1.391-1.94-1.434-3.134s.39-2.355,1.204-3.229l3.41-3.662c.886-.952,2.089-1.433,3.294-1.433,1.097,0,2.196.399,3.063,1.205l21.99,20.449c.916.852,1.436,2.045,1.436,3.296s-.521,2.444-1.436,3.295l-21.99,20.444c-.867.806-1.967,1.204-3.063,1.204Z" style="stroke-width:0px;"/><path d="m671.01,276.556l21.99,20.449-21.99,20.444-3.411-3.662,15.374-14.287h-70.974v-5h70.964l-15.365-14.282,3.411-3.662m.002-9c-2.411,0-4.815.963-6.588,2.866l-3.411,3.662c-1.628,1.748-2.494,4.071-2.408,6.458.065,1.799.666,3.522,1.707,4.958h-48.312c-4.971,0-9,4.029-9,9v5c0,4.971,4.029,9,9,9h48.316c-1.043,1.437-1.646,3.162-1.711,4.962-.086,2.387.78,4.711,2.408,6.459l3.411,3.662c1.773,1.903,4.177,2.866,6.588,2.866,2.194,0,4.393-.797,6.126-2.409l21.99-20.444c1.831-1.703,2.872-4.09,2.872-6.591,0-2.5-1.04-4.888-2.871-6.591l-21.99-20.449c-1.733-1.612-3.933-2.409-6.127-2.409h0Z" style="fill:#fff; stroke-width:0px;"/><rect x="544.5" y="290" width="54" height="14" rx="4.5" ry="4.5" style="stroke-width:0px;"/><path d="m594,294.5v5h-45v-5h45m0-9h-45c-4.971,0-9,4.029-9,9v5c0,4.971,4.029,9,9,9h45c4.971,0,9-4.029,9-9v-5c0-4.971-4.029-9-9-9h0Z" style="fill:#fff; stroke-width:0px;"/><path d="m602.995,661.5c-1.251,0-2.444-.521-3.296-1.436l-20.444-21.99c-1.691-1.819-1.589-4.665.229-6.357l3.662-3.41c.834-.777,1.931-1.207,3.066-1.207.054,0,.108,0,.162.003,1.194.043,2.321.559,3.134,1.434l6.491,6.984V252c0-14.209-7.569-27.578-19.754-34.889l-43.695-26.217c-16.377-9.826-26.551-27.795-26.551-46.894v-18c0-2.485,2.015-4.5,4.5-4.5h5c2.485,0,4.5,2.015,4.5,4.5v18c0,14.209,7.569,27.578,19.754,34.889l43.695,26.217c16.377,9.827,26.551,27.795,26.551,46.894v383.514l6.486-6.978c.813-.875,1.94-1.391,3.134-1.434.054-.002.108-.003.162-.003,1.136,0,2.232.43,3.066,1.207l3.662,3.41c1.818,1.692,1.921,4.538.229,6.357l-20.449,21.99c-.851.915-2.045,1.436-3.295,1.436h0Z" style="stroke-width:0px;"/><path d="m515.5,126v18c0,15.781,8.406,30.628,21.938,38.748l43.695,26.217c15.029,9.018,24.366,25.508,24.366,43.035v394.964l14.282-15.364,3.662,3.411-20.449,21.99-20.444-21.99,3.662-3.411,14.287,15.374V252c0-15.781-8.406-30.628-21.938-38.748l-43.695-26.217c-15.03-9.018-24.366-25.508-24.366-43.035v-18h5m0-9h-5c-4.971,0-9,4.029-9,9v18c0,20.671,11.011,40.118,28.736,50.753l43.695,26.217c10.837,6.502,17.569,18.393,17.569,31.031v372.316c-1.437-1.043-3.162-1.646-4.962-1.711-.108-.004-.217-.006-.325-.006-2.272,0-4.465.86-6.134,2.414l-3.662,3.411c-3.635,3.386-3.84,9.076-.458,12.714l20.444,21.99c1.703,1.831,4.09,2.872,6.591,2.872s4.888-1.04,6.591-2.871l20.449-21.99c3.383-3.638,3.179-9.329-.457-12.715l-3.662-3.411c-1.668-1.554-3.862-2.414-6.133-2.414-.108,0-.216.002-.324.006-1.799.065-3.522.666-4.958,1.707V252c0-20.67-11.011-40.118-28.736-50.753l-43.695-26.217c-10.837-6.502-17.569-18.393-17.569-31.031v-18c0-4.971-4.029-9-9-9h0Z" style="fill:#fff; stroke-width:0px;"/><rect x="118" y="10" width="430" height="115" rx="19" ry="19" style="fill:#efefef; stroke-width:0px;"/><path d="m529,11c9.925,0,18,8.075,18,18v77c0,9.925-8.075,18-18,18H137c-9.925,0-18-8.075-18-18V29c0-9.925,8.075-18,18-18h392m0-2H137c-11,0-20,9-20,20v77c0,11,9,20,20,20h392c11,0,20-9,20-20V29c0-11-9-20-20-20h0Z" style="stroke-width:0px;"/><rect x="118" y="226" width="430" height="115" rx="19" ry="19" style="fill:#efefef; stroke-width:0px;"/><path d="m529,227c9.925,0,18,8.075,18,18v77c0,9.925-8.075,18-18,18H137c-9.925,0-18-8.075-18-18v-77c0-9.925,8.075-18,18-18h392m0-2H137c-11,0-20,9-20,20v77c0,11,9,20,20,20h392c11,0,20-9,20-20v-77c0-11-9-20-20-20h0Z" style="stroke-width:0px;"/><rect x="118" y="442" width="430" height="115" rx="19" ry="19" style="fill:#efefef; stroke-width:0px;"/><path d="m529,443c9.925,0,18,8.075,18,18v77c0,9.925-8.075,18-18,18H137c-9.925,0-18-8.075-18-18v-77c0-9.925,8.075-18,18-18h392m0-2H137c-11,0-20,9-20,20v77c0,11,9,20,20,20h392c11,0,20-9,20-20v-77c0-11-9-20-20-20h0Z" style="stroke-width:0px;"/><rect x="694" y="120.25" width="124" height="313" rx="19" ry="19" style="fill:#efefef; stroke-width:0px;"/><path d="m799,121.25c9.925,0,18,8.075,18,18v275c0,9.925-8.075,18-18,18h-86c-9.925,0-18-8.075-18-18V139.25c0-9.925,8.075-18,18-18h86m0-2h-86c-11,0-20,9-20,20v275c0,11,9,20,20,20h86c11,0,20-9,20-20V139.25c0-11-9-20-20-20h0Z" style="stroke-width:0px;"/><path d="m213.389,53.322v4.866c0,6.825,3.15,10.676,7.315,13.021.665.42.77,1.225.35,1.925s-1.12.98-1.96.49c-3.045-1.646-6.196-4.9-7.246-8.576-.875,3.745-3.64,7.176-7.105,9.031-.77.455-1.505.21-1.925-.455-.455-.665-.42-1.436.28-1.926,4.445-2.729,7.105-6.44,7.105-13.441v-4.936c0-.77.63-1.154,1.575-1.154.98,0,1.61.385,1.61,1.154Zm14.141-1.295v10.432h4.586c.735,0,1.085.524,1.085,1.33s-.35,1.33-1.085,1.33h-4.586v16.521c0,.84-.595,1.26-1.54,1.26-.91,0-1.505-.42-1.505-1.26v-29.613c0-.735.595-1.155,1.505-1.155.945,0,1.54.42,1.54,1.155Z" style="stroke-width:0px;"/><path d="m242.088,62.773c-2.52-1.05-3.675-2.765-3.675-5.005,0-3.746,3.22-6.056,10.676-6.056s10.641,2.31,10.641,6.056c0,2.24-1.155,3.955-3.675,5.005v4.445h6.931c.7,0,1.015.596,1.015,1.296,0,.665-.315,1.26-1.015,1.26h-27.828c-.7,0-1.015-.595-1.015-1.26,0-.7.315-1.296,1.015-1.296h6.931v-4.445Zm7.001,9.312c7.246,0,10.816,1.96,10.816,5.775,0,3.78-3.57,5.775-10.816,5.775s-10.816-1.995-10.816-5.775c0-3.815,3.57-5.775,10.816-5.775Zm0,9.101c5.391,0,7.596-1.26,7.596-3.325,0-2.101-2.205-3.36-7.596-3.36-5.355,0-7.596,1.26-7.596,3.36,0,2.065,2.24,3.325,7.596,3.325Zm0-19.882c5.496,0,7.526-1.33,7.526-3.535,0-2.24-2.03-3.571-7.526-3.571s-7.561,1.331-7.561,3.571c0,2.205,2.065,3.535,7.561,3.535Zm-3.991,2.24v3.675h7.946v-3.675c-1.155.175-2.485.28-3.955.28-1.505,0-2.835-.105-3.991-.28Z" style="stroke-width:0px;"/><path d="m268.163,74.395c-.84.455-1.505.28-1.995-.42-.455-.63-.42-1.47.35-1.96,3.885-2.415,7-5.74,7-12.356v-3.15h-6.335c-.77,0-1.085-.595-1.085-1.365,0-.734.35-1.295,1.085-1.295h15.927c.735,0,1.12.561,1.12,1.295,0,.771-.35,1.365-1.12,1.365h-6.406v3.186c0,6.546,3.5,9.801,7.386,11.796.63.351.77,1.226.385,1.926-.455.77-1.085.944-1.996.524-3.045-1.47-6.195-4.55-7.351-8.051-1.015,3.536-3.675,6.581-6.966,8.506Zm22.717-22.367v10.466h4.585c.735,0,1.085.525,1.085,1.331s-.35,1.33-1.085,1.33h-4.585v16.451c0,.84-.595,1.261-1.54,1.261-.91,0-1.505-.421-1.505-1.261v-29.578c0-.735.595-1.155,1.505-1.155.945,0,1.54.42,1.54,1.155Z" style="stroke-width:0px;"/><path d="m316.779,52.798c5.076,0,8.401,3.22,8.401,7.735,0,4.551-3.325,7.701-8.401,7.701-5.146,0-8.436-3.15-8.436-7.701,0-4.516,3.291-7.735,8.436-7.735Zm0,12.881c3.43,0,5.46-2.135,5.46-5.146s-2.03-5.216-5.46-5.216-5.46,2.206-5.46,5.216,2.03,5.146,5.46,5.146Zm-3.325,7.106c0-.771.63-1.19,1.54-1.19s1.575.42,1.575,1.19v6.825c0,.561.105.595.665.595h16.417c.735,0,1.12.525,1.12,1.33,0,.771-.385,1.331-1.12,1.331h-16.521c-2.275,0-3.675-.105-3.675-2.451v-7.63Zm17.187-20.758c0-.735.63-1.155,1.505-1.155s1.505.42,1.505,1.155v21.002c0,.841-.56,1.261-1.505,1.261s-1.505-.42-1.505-1.261v-21.002Z" style="stroke-width:0px;"/><path d="m340.438,56.053c0-1.855.56-2.521,2.625-2.521h11.341c.7,0,1.085.525,1.085,1.331s-.385,1.33-1.085,1.33h-10.116c-.7,0-.77.104-.77.734v5.355h9.661c.735,0,1.085.525,1.085,1.296,0,.805-.35,1.295-1.085,1.295h-9.661v5.811c0,.7.07.77.735.805,4.83.105,8.646-.175,11.971-.91.56-.14,1.155.21,1.295.98.14.84-.175,1.4-.77,1.54-3.396.875-7.841,1.155-13.616,1.016-1.996-.035-2.695-.7-2.695-2.766v-15.297Zm22.192-4.061c0-.7.561-1.155,1.505-1.155.91,0,1.505.455,1.505,1.155v29.648c0,.84-.56,1.26-1.505,1.26s-1.505-.42-1.505-1.26v-17.396h-5.495c-.735,0-1.155-.49-1.155-1.33,0-.876.42-1.365,1.155-1.365h5.495v-9.557Z" style="stroke-width:0px;"/><path d="m373.233,59.519c0-.735.525-1.051,1.365-1.051.875,0,1.4.315,1.4,1.051v11.551h1.855c.7,0,1.4,0,2.03-.035v-11.551c0-.7.56-1.05,1.4-1.05s1.4.35,1.4,1.05v11.376c.98-.07,1.855-.21,2.45-.314.7-.141,1.225.42,1.225,1.295,0,.63-.28,1.015-.84,1.155-1.995.455-5.076.665-7.981.665h-6.335c-.665,0-1.085-.49-1.085-1.296s.42-1.295,1.085-1.295h2.03v-11.551Zm-1.715-2.73c-.735,0-1.085-.561-1.085-1.33,0-.735.35-1.295,1.085-1.295h13.336c.735,0,1.085.56,1.085,1.295,0,.77-.35,1.33-1.085,1.33h-13.336Zm17.117-4.2c0-.665.595-1.085,1.47-1.085s1.435.42,1.435,1.085v28.282c0,.806-.525,1.226-1.435,1.226s-1.47-.42-1.47-1.226v-15.716h-3.255c-.735,0-1.12-.49-1.12-1.365,0-.806.385-1.33,1.12-1.33h3.255v-9.871Zm6.511-.596c0-.7.595-1.12,1.47-1.12.91,0,1.47.42,1.47,1.12v29.684c0,.805-.525,1.19-1.47,1.19-.91,0-1.47-.386-1.47-1.19v-29.684Z" style="stroke-width:0px;"/><path d="m411.699,74.57c-5.531,0-8.261-4.061-8.261-10.852,0-6.826,2.73-10.886,8.261-10.886s8.261,4.06,8.261,10.886c0,6.791-2.73,10.852-8.261,10.852Zm0-19.112c-3.36,0-5.215,2.625-5.215,8.261,0,5.601,1.855,8.226,5.215,8.226s5.25-2.625,5.25-8.226c0-5.636-1.89-8.261-5.25-8.261Zm13.966-3.431c0-.7.56-1.155,1.505-1.155.91,0,1.505.455,1.505,1.155v29.578c0,.84-.56,1.261-1.505,1.261s-1.505-.421-1.505-1.261v-29.578Z" style="stroke-width:0px;"/><path d="m434.658,75.375h27.793c.665,0,1.05.525,1.05,1.33s-.385,1.33-1.05,1.33h-27.793c-.665,0-1.05-.525-1.05-1.33s.385-1.33,1.05-1.33Zm15.542-22.087v2.695c0,5.425,5.46,9.171,10.151,10.186.735.14.98,1.016.7,1.785-.28.7-.84,1.085-1.75.91-4.411-.945-9.066-3.955-10.711-8.121-1.61,4.166-6.266,7.211-10.676,8.121-.91.175-1.47-.175-1.75-.91-.315-.77-.035-1.61.7-1.785,4.9-1.05,10.081-4.796,10.081-10.151v-2.729c0-.771.7-1.19,1.645-1.19.91,0,1.61.42,1.61,1.19Z" style="stroke-width:0px;"/><path d="m235.192,294.105c-.665,0-1.05-.49-1.05-1.295s.385-1.331,1.05-1.331h27.758c.7,0,1.051.525,1.051,1.331s-.351,1.295-1.051,1.295h-27.758Zm6.336-19.462h15.121v-4.796c0-.7.665-1.085,1.506-1.085.944,0,1.609.385,1.609,1.085v13.302c0,1.75-.805,2.275-2.625,2.275h-16.206c-1.855,0-2.521-.561-2.521-2.311v-13.267c0-.7.665-1.085,1.54-1.085.91,0,1.575.385,1.575,1.085v4.796Zm0,7.525c0,.63.104.7.7.7h13.687c.63,0,.734-.07.734-.7v-4.971h-15.121v4.971Z" style="stroke-width:0px;"/><path d="m269.843,290.71c-2.065-.035-2.801-.49-2.801-2.87v-7.036c0-1.435.49-2.205,2.695-2.205h7.981c.63,0,.7-.14.7-.7v-5.146c0-.525-.07-.63-.7-.63h-9.626c-.735,0-1.155-.595-1.155-1.33,0-.771.42-1.33,1.155-1.33h11.096c1.785,0,2.311.665,2.311,2.03v7.176c0,1.715-.7,2.38-2.45,2.38h-8.226c-.596,0-.7.105-.7.665v5.53c0,.7.069.771.734.771h1.926c5.285,0,8.855-.455,11.341-.945.806-.175,1.365.351,1.365,1.365,0,.665-.35,1.05-.805,1.155-2.626.7-6.931,1.12-13.162,1.12h-1.68Zm21.002-22.683v10.396h4.586c.77,0,1.085.524,1.085,1.33s-.315,1.33-1.085,1.33h-4.586v16.521c0,.84-.56,1.261-1.505,1.261s-1.505-.421-1.505-1.261v-29.578c0-.7.595-1.155,1.505-1.155.945,0,1.505.455,1.505,1.155Z" style="stroke-width:0px;"/><path d="m314.015,298.271c0,.875-.665,1.261-1.575,1.261-.945,0-1.575-.386-1.575-1.261v-10.571h-12.321c-.665,0-1.051-.489-1.051-1.33,0-.77.386-1.295,1.051-1.295h27.758c.7,0,1.05.525,1.05,1.295,0,.841-.35,1.33-1.05,1.33h-12.286v10.571Zm-1.575-30.348c7.561,0,10.781,2.87,10.781,7s-3.221,7.036-10.781,7.036c-7.631,0-10.852-2.905-10.852-7.036s3.221-7,10.852-7Zm0,11.376c5.565,0,7.631-1.715,7.631-4.376s-2.065-4.41-7.631-4.41c-5.601,0-7.666,1.75-7.666,4.41s2.065,4.376,7.666,4.376Z" style="stroke-width:0px;"/><path d="m332.282,290.57c-.84.455-1.54.244-1.995-.455-.455-.735-.35-1.506.386-1.961,3.885-2.38,7.141-5.601,7.141-12.251v-3.396h-6.511c-.735,0-1.05-.595-1.05-1.365,0-.734.35-1.295,1.05-1.295h16.102c.735,0,1.085.561,1.085,1.295,0,.771-.314,1.365-1.085,1.365h-6.44v3.431c0,6.58,3.605,9.696,7.386,11.761.665.386.77,1.19.385,1.891-.49.805-1.05,1.015-1.96.595-3.08-1.505-6.196-4.41-7.386-8.051-.98,3.641-3.676,6.546-7.106,8.437Zm24.013-22.543v29.613c0,.84-.595,1.26-1.505,1.26-.945,0-1.54-.42-1.54-1.26v-17.327h-6.301c-.771,0-1.155-.524-1.155-1.33,0-.84.385-1.365,1.155-1.365h6.301v-9.591c0-.735.595-1.155,1.54-1.155.91,0,1.505.42,1.505,1.155Z" style="stroke-width:0px;"/><path d="m388.459,268.588c0-.665.561-1.085,1.471-1.085s1.505.42,1.505,1.085v20.302c0,.805-.596,1.19-1.505,1.19s-1.471-.386-1.471-1.19v-10.816h-3.29c-.49,3.921-3.186,6.476-7.176,6.476-4.48,0-7.316-3.115-7.316-7.771s2.836-7.771,7.316-7.771c3.955,0,6.686,2.555,7.176,6.44h3.29v-6.86Zm-10.466,13.371c2.835,0,4.41-2.275,4.41-5.181,0-2.87-1.575-5.181-4.41-5.181s-4.445,2.311-4.445,5.181c0,2.905,1.609,5.181,4.445,5.181Zm-1.226,6.896c0-.77.63-1.155,1.575-1.155.875,0,1.54.386,1.54,1.155v6.756c0,.561.105.595.665.595h17.257c.771,0,1.12.525,1.12,1.33,0,.771-.35,1.331-1.12,1.331h-17.432c-2.31,0-3.605-.211-3.605-2.416v-7.596Zm18.377-20.862c0-.7.561-1.12,1.436-1.12.945,0,1.505.42,1.505,1.12v21.633c0,.805-.56,1.189-1.505,1.189-.875,0-1.436-.385-1.436-1.189v-21.633Z" style="stroke-width:0px;"/><path d="m413.903,272.053v1.471c0,5.705,3.815,8.296,7.105,9.485.49.176.7.63.7,1.085,0,.841-.63,1.541-1.365,1.541-.21,0-.42-.035-.63-.105-3.115-1.05-6.056-3.396-7.281-6.546-.944,3.221-3.885,5.706-7.28,7.176-.21.07-.42.105-.595.105-.771,0-1.436-.7-1.436-1.506,0-.454.245-.84.735-1.085,3.78-1.75,6.931-4.375,6.931-10.15v-1.471h-6.336c-.735,0-1.085-.595-1.085-1.33,0-.77.385-1.33,1.085-1.33h15.892c.7,0,1.085.595,1.085,1.33s-.35,1.33-1.085,1.33h-6.44Zm-5.426,16.872c0-.735.63-1.19,1.54-1.19.945,0,1.575.455,1.575,1.19v6.686c0,.561.105.595.665.595h16.452c.735,0,1.12.525,1.12,1.33s-.385,1.331-1.12,1.331h-16.627c-2.345,0-3.605-.141-3.605-2.346v-7.596Zm17.187-20.897c0-.735.631-1.155,1.506-1.155s1.505.42,1.505,1.155v21.143c0,.84-.561,1.225-1.505,1.225s-1.506-.385-1.506-1.225v-21.143Z" style="stroke-width:0px;"/><path d="m253.621,501.914c-1.75,0-2.45-.805-2.45-2.45v-5.11c0-1.505.665-2.17,2.765-2.17h5.25c.595,0,.7-.07.7-.63v-3.116c0-.524-.105-.595-.735-.595h-6.965c-.7,0-1.12-.56-1.12-1.26,0-.806.42-1.295,1.12-1.295h8.156c1.785,0,2.52.385,2.52,2.205v4.76c0,1.61-.735,2.311-2.625,2.311h-5.391c-.595,0-.7.105-.7.665v3.256c0,.665.07.77.77.77h1.715c2.52,0,4.831-.28,6.476-.56.21-.035.49-.07.595-.07.525,0,1.155.28,1.155,1.226,0,.699-.35,1.12-.805,1.225-1.891.455-4.936.84-8.961.84h-1.47Zm2.975,3.711c0-.735.665-1.155,1.61-1.155.875,0,1.54.42,1.54,1.155v6.091c0,.56.105.63.665.63h17.187c.735,0,1.12.49,1.12,1.295,0,.771-.385,1.33-1.12,1.33h-17.397c-2.38,0-3.605-.21-3.605-2.415v-6.931Zm11.691-21.037c0-.665.595-1.085,1.47-1.085.945,0,1.47.42,1.47,1.085v20.757c0,.805-.525,1.19-1.47,1.19-.98,0-1.47-.455-1.47-1.19v-10.852h-3.36c-.735,0-1.085-.524-1.085-1.33,0-.91.35-1.399,1.085-1.399h3.36v-7.176Zm6.581-.596c0-.7.595-1.12,1.435-1.12.945,0,1.505.42,1.505,1.12v22.123c0,.84-.525,1.189-1.505,1.189-.875,0-1.435-.35-1.435-1.189v-22.123Z" style="stroke-width:0px;"/><path d="m287.151,488.368c-.7,0-.77.104-.77.735v13.301c0,.63.105.771.77.771h1.33c3.36,0,7.176-.141,10.571-.875.14-.035.21-.035.28-.035.595,0,1.12.524,1.12,1.435,0,.596-.315,1.016-.805,1.155-2.59.665-7.211,1.016-11.201,1.016-3.815,0-5.111.035-5.111-2.871v-14.701c0-1.89.525-2.59,2.625-2.59h11.691c.7,0,1.155.524,1.155,1.33,0,.84-.455,1.33-1.155,1.33h-10.501Zm18.517-4.341c0-.7.595-1.155,1.505-1.155.945,0,1.541.455,1.541,1.155v29.578c0,.84-.595,1.261-1.541,1.261-.91,0-1.505-.421-1.505-1.261v-17.012h-8.611c-.735,0-1.155-.49-1.155-1.33,0-.875.42-1.365,1.155-1.365h8.611v-9.871Z" style="stroke-width:0px;"/><path d="m316.376,484.763h11.061c1.785,0,2.24.595,2.24,2.24v4.69c0,1.715-.49,2.24-2.275,2.24h-8.296c-.56,0-.7.104-.7.665v3.045c0,.665.105.771.735.771,7.141.21,11.131-.28,13.792-.875.56-.141,1.12.175,1.26.945.175.805-.14,1.399-.7,1.54-2.555.665-7.456,1.155-15.682,1.015-1.75-.035-2.45-.63-2.45-2.45v-4.865c0-1.575.595-2.136,2.345-2.136h8.226c.595,0,.7-.14.7-.665v-2.87c0-.56-.105-.665-.735-.665h-9.521c-.735,0-1.085-.56-1.085-1.295,0-.771.35-1.33,1.085-1.33Zm13.231,30.698c-6.966,0-10.711-2.17-10.711-5.916,0-3.815,3.71-5.985,10.711-5.985,6.966,0,10.676,2.17,10.676,5.985,0,3.746-3.71,5.916-10.676,5.916Zm0-9.416c-4.936,0-7.596,1.295-7.596,3.5,0,2.171,2.66,3.466,7.596,3.466,4.9,0,7.596-1.295,7.596-3.466,0-2.205-2.695-3.5-7.596-3.5Zm7.456-22.018c0-.735.63-1.155,1.505-1.155s1.505.42,1.505,1.155v17.817c0,.805-.56,1.26-1.505,1.26s-1.505-.455-1.505-1.26v-17.817Z" style="stroke-width:0px;"/><path d="m372.623,484.588c0-.665.56-1.085,1.47-1.085s1.505.42,1.505,1.085v20.302c0,.805-.595,1.19-1.505,1.19s-1.47-.386-1.47-1.19v-10.816h-3.291c-.49,3.921-3.185,6.476-7.176,6.476-4.48,0-7.316-3.115-7.316-7.771s2.835-7.771,7.316-7.771c3.956,0,6.686,2.555,7.176,6.44h3.291v-6.86Zm-10.466,13.371c2.835,0,4.411-2.275,4.411-5.181,0-2.87-1.575-5.181-4.411-5.181s-4.445,2.311-4.445,5.181c0,2.905,1.61,5.181,4.445,5.181Zm-1.225,6.896c0-.77.63-1.155,1.575-1.155.875,0,1.54.386,1.54,1.155v6.756c0,.561.105.595.665.595h17.257c.77,0,1.12.525,1.12,1.33,0,.771-.35,1.331-1.12,1.331h-17.432c-2.311,0-3.605-.211-3.605-2.416v-7.596Zm18.377-20.862c0-.7.56-1.12,1.435-1.12.945,0,1.505.42,1.505,1.12v21.633c0,.805-.56,1.189-1.505,1.189-.875,0-1.435-.385-1.435-1.189v-21.633Z" style="stroke-width:0px;"/><path d="m398.066,488.053v1.471c0,5.705,3.815,8.296,7.106,9.485.49.176.7.63.7,1.085,0,.841-.63,1.541-1.365,1.541-.21,0-.42-.035-.63-.105-3.115-1.05-6.055-3.396-7.281-6.546-.945,3.221-3.885,5.706-7.281,7.176-.21.07-.42.105-.595.105-.77,0-1.435-.7-1.435-1.506,0-.454.245-.84.735-1.085,3.78-1.75,6.931-4.375,6.931-10.15v-1.471h-6.335c-.735,0-1.085-.595-1.085-1.33,0-.77.385-1.33,1.085-1.33h15.892c.7,0,1.085.595,1.085,1.33s-.35,1.33-1.085,1.33h-6.441Zm-5.425,16.872c0-.735.63-1.19,1.54-1.19.945,0,1.575.455,1.575,1.19v6.686c0,.561.105.595.665.595h16.452c.735,0,1.12.525,1.12,1.33s-.385,1.331-1.12,1.331h-16.626c-2.346,0-3.605-.141-3.605-2.346v-7.596Zm17.187-20.897c0-.735.63-1.155,1.505-1.155s1.505.42,1.505,1.155v21.143c0,.84-.56,1.225-1.505,1.225s-1.505-.385-1.505-1.225v-21.143Z" style="stroke-width:0px;"/><rect x="10" y="658" width="169" height="115" rx="19" ry="19" style="fill:#efefef; stroke-width:0px;"/><path d="m160,659c9.925,0,18,8.075,18,18v77c0,9.925-8.075,18-18,18H29c-9.925,0-18-8.075-18-18v-77c0-9.925,8.075-18,18-18h131m0-2H29c-11,0-20,9-20,20v77c0,11,9,20,20,20h131c11,0,20-9,20-20v-77c0-11-9-20-20-20h0Z" style="stroke-width:0px;"/><path d="m68.216,702.373c0-1.855.595-2.556,2.59-2.556h17.432c.735,0,1.12.455,1.12,1.26s-.385,1.226-1.12,1.226h-16.277c-.56,0-.63.105-.63.699v2.416h16.452c.735,0,1.12.385,1.12,1.225,0,.806-.385,1.19-1.12,1.19h-16.452v2.345c0,.596.105.666.63.666h16.452c.735,0,1.12.455,1.12,1.26s-.385,1.225-1.155,1.225h-8.121v3.011h12.287c.7,0,1.05.56,1.05,1.261s-.35,1.225-1.05,1.225h-27.828c-.665,0-1.015-.525-1.015-1.225s.35-1.261,1.015-1.261h12.391v-3.011h-6.266c-1.855,0-2.625-.489-2.625-2.484v-8.471Zm10.431,18.342c7.315,0,10.886,1.82,10.886,5.426,0,3.57-3.571,5.425-10.886,5.425s-10.886-1.854-10.886-5.425c0-3.605,3.605-5.426,10.886-5.426Zm0,8.436c5.46,0,7.736-1.051,7.736-3.01s-2.275-3.011-7.736-3.011-7.736,1.05-7.736,3.011,2.275,3.01,7.736,3.01Z" style="stroke-width:0px;"/><path d="m107.171,701.252v3.221c0,6.091,3.675,8.576,7.105,9.906.7.314.84,1.12.56,1.785-.35.734-1.015,1.155-1.925.77-3.15-1.225-6.091-3.57-7.246-6.79-.875,3.36-3.745,5.985-7.281,7.456-.84.35-1.47-.035-1.785-.701-.35-.699-.315-1.504.49-1.819,3.745-1.751,6.966-4.446,6.966-10.501v-3.326c0-.699.665-1.084,1.54-1.084.945,0,1.575.385,1.575,1.084Zm-2.03,19.498v6.86c0,.56.07.63.665.63h16.277c.77,0,1.12.525,1.12,1.33s-.35,1.295-1.12,1.295h-17.432c-1.82,0-2.695-.42-2.695-2.345v-7.771c0-.771.7-1.19,1.61-1.19.945,0,1.575.42,1.575,1.19Zm17.012-20.723v20.967c0,.84-.595,1.26-1.54,1.26s-1.505-.42-1.505-1.26v-20.967c0-.735.63-1.155,1.505-1.155.91,0,1.54.42,1.54,1.155Z" style="stroke-width:0px;"/><rect x="199" y="658" width="268" height="115" rx="19" ry="19" style="fill:#efefef; stroke-width:0px;"/><path d="m448,659c9.925,0,18,8.075,18,18v77c0,9.925-8.075,18-18,18h-230c-9.925,0-18-8.075-18-18v-77c0-9.925,8.075-18,18-18h230m0-2h-230c-11,0-20,9-20,20v77c0,11,9,20,20,20h230c11,0,20-9,20-20v-77c0-11-9-20-20-20h0Z" style="stroke-width:0px;"/><path d="m245.695,701.395c-.84.455-1.505.28-1.995-.42-.455-.63-.42-1.471.35-1.961,3.885-2.414,7-5.74,7-12.355v-3.15h-6.335c-.77,0-1.085-.596-1.085-1.365,0-.734.35-1.295,1.085-1.295h15.927c.735,0,1.12.561,1.12,1.295,0,.77-.35,1.365-1.12,1.365h-6.406v3.186c0,6.545,3.5,9.801,7.386,11.796.63.351.77,1.226.385,1.925-.455.771-1.085.945-1.996.525-3.045-1.471-6.195-4.551-7.351-8.051-1.015,3.535-3.675,6.58-6.966,8.506Zm22.717-22.367v10.466h4.585c.735,0,1.085.525,1.085,1.331s-.35,1.33-1.085,1.33h-4.585v16.451c0,.84-.595,1.26-1.54,1.26-.91,0-1.505-.42-1.505-1.26v-29.578c0-.735.595-1.155,1.505-1.155.945,0,1.54.42,1.54,1.155Z" style="stroke-width:0px;"/><path d="m279.436,688.059h9.066v-7.176c0-.735.665-1.121,1.505-1.121.91,0,1.541.386,1.541,1.121v16.346c0,2.521-.28,3.676-2.625,3.676h-9.976c-1.855,0-2.555-.699-2.555-2.45v-17.571c0-.7.63-1.121,1.47-1.121.945,0,1.575.421,1.575,1.121v7.176Zm0,9.625c0,.631.105.701.7.701h7.63c.666,0,.735-.07.735-.735v-7.106h-9.066v7.141Zm17.607-18.656c0-.735.63-1.155,1.47-1.155.98,0,1.54.42,1.54,1.155v10.432h4.585c.77,0,1.085.524,1.085,1.33s-.315,1.33-1.085,1.33h-4.585v16.486c0,.84-.56,1.26-1.505,1.26-.91,0-1.505-.42-1.505-1.26v-29.578Z" style="stroke-width:0px;"/><path d="m307.75,702.375h27.793c.665,0,1.05.525,1.05,1.33s-.385,1.33-1.05,1.33h-27.793c-.665,0-1.05-.525-1.05-1.33s.385-1.33,1.05-1.33Zm15.542-22.088v2.695c0,5.426,5.46,9.172,10.151,10.187.735.14.98,1.015.7,1.785-.28.7-.84,1.085-1.75.91-4.411-.945-9.066-3.956-10.711-8.121-1.61,4.165-6.266,7.211-10.676,8.121-.91.175-1.47-.175-1.75-.91-.315-.771-.035-1.61.7-1.785,4.9-1.05,10.081-4.796,10.081-10.151v-2.73c0-.77.7-1.189,1.645-1.189.91,0,1.61.42,1.61,1.189Z" style="stroke-width:0px;"/><path d="m339.425,704.79c-.665,0-1.05-.524-1.05-1.33s.385-1.33,1.05-1.33h27.793c.665,0,1.05.524,1.05,1.33s-.385,1.33-1.05,1.33h-27.793Zm4.515-21.247c-.77,0-1.19-.561-1.19-1.365s.42-1.365,1.19-1.365h17.537c1.785,0,2.52.7,2.52,2.415v4.48c0,3.536-.49,8.472-1.365,10.956-.315.91-1.085,1.121-1.891.945-.805-.21-1.26-.77-1.015-1.645.42-1.506.735-3.57.91-5.672h-17.747c-.735,0-1.12-.56-1.12-1.33,0-.699.385-1.26,1.12-1.26h17.887c.035-.35.035-.699.035-1.05v-4.445c0-.56-.105-.665-.665-.665h-16.207Z" style="stroke-width:0px;"/><path d="m373.095,679.412h11.061c1.785,0,2.24.596,2.24,2.24v4.445c0,1.715-.49,2.24-2.275,2.24h-8.296c-.56,0-.7.105-.7.666v2.869c0,.666.105.771.735.771,7.141.21,11.131-.28,13.792-.875.56-.14,1.12.175,1.26.945.175.805-.14,1.399-.7,1.54-2.555.665-7.456,1.155-15.682,1.016-1.75-.035-2.45-.631-2.45-2.451v-4.689c0-1.576.42-2.136,2.17-2.136h8.401c.595,0,.7-.14.7-.665v-2.625c0-.561-.105-.666-.735-.666h-9.521c-.735,0-1.085-.56-1.085-1.295,0-.77.35-1.33,1.085-1.33Zm6.826,22.332h13.861v-2.869c0-.701.63-1.051,1.505-1.051s1.505.35,1.505,1.051v8.365c0,3.01-.63,3.08-3.5,3.08h-12.952c-3.185,0-3.43-.385-3.43-3.115v-8.33c0-.701.63-1.051,1.505-1.051s1.505.35,1.505,1.051v2.869Zm0,5.426c0,.631.105.735.735.735h12.426c.595,0,.7-.069.7-.735v-3.01h-13.861v3.01Zm13.861-28.143c0-.735.63-1.155,1.505-1.155s1.505.42,1.505,1.155v15.927c0,.84-.56,1.26-1.505,1.26s-1.505-.42-1.505-1.26v-15.927Z" style="stroke-width:0px;"/><path d="m402.775,705.035c-.665,0-1.05-.525-1.05-1.365,0-.77.385-1.295,1.05-1.295h27.793c.665,0,1.05.525,1.05,1.295,0,.84-.385,1.365-1.05,1.365h-27.793Zm3.15-22.367c0-1.891.595-2.556,2.625-2.556h18.167c.735,0,1.155.49,1.155,1.33,0,.806-.42,1.33-1.155,1.33h-16.907c-.63,0-.7.07-.7.665v3.851h17.012c.735,0,1.155.49,1.155,1.296,0,.84-.42,1.33-1.155,1.33h-17.012v3.814c0,.596.105.735.7.735h17.047c.735,0,1.155.49,1.155,1.295,0,.841-.42,1.331-1.19,1.331h-18.272c-1.855,0-2.625-.561-2.625-2.626v-11.796Z" style="stroke-width:0px;"/><path d="m291.983,729.988c-.735,0-1.05-.561-1.05-1.295,0-.771.35-1.33,1.05-1.33h13.617c.735,0,1.085.56,1.085,1.33,0,.734-.315,1.295-1.085,1.295h-13.617Zm7.106,2.1c4.235,0,6.65,2.381,6.65,6.196s-2.415,6.23-6.65,6.23-6.616-2.415-6.616-6.23,2.345-6.196,6.616-6.196Zm-3.605-7.7c-.665,0-1.015-.595-1.015-1.33,0-.841.42-1.296,1.015-1.296h6.826c.665,0,1.05.596,1.05,1.296,0,.806-.42,1.33-1.05,1.33h-6.826Zm3.605,17.782c2.59,0,3.955-1.471,3.955-3.886,0-2.38-1.365-3.956-3.955-3.956s-3.92,1.576-3.92,3.956c0,2.415,1.33,3.886,3.92,3.886Zm9.486-20.582c0-.666.56-1.086,1.47-1.086s1.47.42,1.47,1.086v11.69h4.235v-12.286c0-.7.595-1.12,1.47-1.12.91,0,1.47.42,1.47,1.12v29.684c0,.805-.525,1.189-1.47,1.189-.91,0-1.47-.385-1.47-1.189v-14.736h-4.235v13.966c0,.806-.56,1.19-1.47,1.19s-1.47-.385-1.47-1.19v-28.317Z" style="stroke-width:0px;"/><path d="m334.229,721.832v3.046c0,6.021,3.78,8.366,7.141,9.626.735.279.875,1.085.56,1.785-.315.699-1.015,1.154-1.89.77-3.115-1.154-6.196-3.43-7.351-6.545-.98,3.22-3.815,5.74-7.246,7.105-.875.35-1.54-.035-1.855-.7s-.28-1.47.525-1.854c3.675-1.611,6.966-4.131,6.966-10.082v-3.15c0-.734.665-1.085,1.54-1.085.945,0,1.61.351,1.61,1.085Zm-4.585,18.762h17.502c1.82,0,2.485.49,2.485,2.346v8.646c0,.699-.665,1.119-1.54,1.119-.91,0-1.575-.42-1.575-1.119v-7.807c0-.525-.07-.56-.63-.56h-16.242c-.77,0-1.155-.525-1.155-1.296,0-.805.385-1.33,1.155-1.33Zm19.987-19.566v16.451c0,.841-.56,1.261-1.505,1.261s-1.541-.42-1.541-1.261v-8.226h-6.195c-.77,0-1.12-.455-1.12-1.33s.35-1.295,1.12-1.295h6.195v-5.601c0-.735.63-1.155,1.541-1.155.875,0,1.505.42,1.505,1.155Z" style="stroke-width:0px;"/><path d="m367.689,722.672c2.59,0,3.745.07,3.745,2.381,0,9.136-4.655,15.156-13.441,18.832-.245.105-.49.175-.735.175-.665,0-1.365-.665-1.365-1.61,0-.525.245-.945.63-1.119,7.386-3.046,11.726-7.736,11.726-15.367,0-.49-.14-.631-.735-.631h-9.941c-.7,0-1.155-.489-1.155-1.33,0-.805.455-1.33,1.155-1.33h10.116Zm10.256-1.645c0-.7.56-1.155,1.505-1.155.91,0,1.505.455,1.505,1.155v29.578c0,.84-.56,1.26-1.505,1.26s-1.505-.42-1.505-1.26v-29.578Z" style="stroke-width:0px;"/><rect x="487" y="658" width="205" height="115" rx="19" ry="19" style="fill:#efefef; stroke-width:0px;"/><path d="m673,659c9.925,0,18,8.075,18,18v77c0,9.925-8.075,18-18,18h-167c-9.925,0-18-8.075-18-18v-77c0-9.925,8.075-18,18-18h167m0-2h-167c-11,0-20,9-20,20v77c0,11,9,20,20,20h167c11,0,20-9,20-20v-77c0-11-9-20-20-20h0Z" style="stroke-width:0px;"/><path d="m523.613,717.074v-15.297c0-.805.7-1.26,1.61-1.26.875,0,1.575.455,1.575,1.26v14.736c0,5.496,2.38,7.246,6.266,7.246,3.815,0,6.406-1.75,6.406-7.211v-14.771c0-.805.7-1.26,1.54-1.26.875,0,1.575.455,1.575,1.26v15.191c0,6.756-3.71,9.661-9.521,9.661-5.881,0-9.451-2.905-9.451-9.556Z" style="stroke-width:0px;"/><path d="m547.693,701.777c0-.805.665-1.26,1.575-1.26.875,0,1.575.455,1.575,1.26v23.558c0,.84-.7,1.295-1.575,1.295-.91,0-1.575-.455-1.575-1.295v-23.558Z" style="stroke-width:0px;"/><path d="m567.888,706.258h7.071v-4.62c0-.735.595-1.085,1.47-1.085s1.436.35,1.436,1.085v11.551c0,3.116-.63,3.116-3.501,3.116h-5.95c-3.255,0-3.43-.351-3.43-3.15v-11.517c0-.7.595-1.05,1.4-1.05.945,0,1.505.35,1.505,1.05v4.62Zm0,6.861c0,.629.105.664.665.664h5.706c.63,0,.7-.035.7-.664v-4.411h-7.071v4.411Zm23.733,17.606c0,.735-.631,1.155-1.541,1.155s-1.574-.42-1.574-1.155v-7.491c0-.56-.07-.595-.596-.595h-17.047c-.735,0-1.12-.56-1.12-1.365,0-.771.385-1.33,1.12-1.33h18.236c1.82,0,2.521.455,2.521,2.31v8.472Zm-2.941-30.733c0-.7.561-1.12,1.436-1.12.945,0,1.506.42,1.506,1.12v17.257c0,.771-.561,1.155-1.506,1.155-.91,0-1.436-.42-1.436-1.155v-7.386h-4.375v7.035c0,.806-.525,1.191-1.436,1.191-1.05,0-1.505-.421-1.505-1.191v-16.311c0-.666.56-1.086,1.505-1.086.875,0,1.436.42,1.436,1.086v6.58h4.375v-7.176Z" style="stroke-width:0px;"/><path d="m613.67,700.588c0-.666.56-1.086,1.47-1.086s1.505.42,1.505,1.086v20.302c0,.805-.596,1.19-1.505,1.19s-1.47-.386-1.47-1.19v-10.816h-3.291c-.49,3.921-3.186,6.476-7.176,6.476-4.48,0-7.316-3.115-7.316-7.771s2.836-7.771,7.316-7.771c3.955,0,6.686,2.555,7.176,6.44h3.291v-6.86Zm-10.467,13.371c2.836,0,4.41-2.275,4.41-5.181,0-2.87-1.574-5.181-4.41-5.181s-4.445,2.311-4.445,5.181c0,2.905,1.609,5.181,4.445,5.181Zm-1.225,6.896c0-.771.629-1.155,1.574-1.155.875,0,1.541.385,1.541,1.155v6.756c0,.56.104.595.664.595h17.258c.77,0,1.119.525,1.119,1.33,0,.771-.35,1.33-1.119,1.33h-17.432c-2.311,0-3.605-.21-3.605-2.415v-7.596Zm18.377-20.862c0-.7.56-1.12,1.435-1.12.945,0,1.505.42,1.505,1.12v21.633c0,.805-.56,1.189-1.505,1.189-.875,0-1.435-.385-1.435-1.189v-21.633Z" style="stroke-width:0px;"/><path d="m628.193,726.035c-.666,0-1.051-.49-1.051-1.33,0-.771.385-1.295,1.051-1.295h27.758c.699,0,1.05.524,1.05,1.295,0,.84-.351,1.33-1.05,1.33h-27.758Zm3.185-22.263c0-1.89.595-2.485,2.591-2.485h18.131c.736,0,1.121.455,1.121,1.295,0,.806-.385,1.33-1.121,1.33h-16.801c-.666,0-.735.105-.735.701v8.575c0,.595.104.735.735.735h16.836c.736,0,1.121.49,1.121,1.33,0,.805-.385,1.295-1.121,1.295h-16.871c-2.521,0-3.886.07-3.886-2.52v-10.257Z" style="stroke-width:0px;"/><path d="m743.383,207.642c-.841.455-1.506.28-1.995-.42-.455-.63-.421-1.47.35-1.96,3.886-2.415,7.001-5.74,7.001-12.356v-3.15h-6.336c-.771,0-1.085-.595-1.085-1.365,0-.735.35-1.295,1.085-1.295h15.927c.735,0,1.12.56,1.12,1.295,0,.77-.351,1.365-1.12,1.365h-6.405v3.185c0,6.546,3.5,9.801,7.386,11.796.63.35.77,1.225.385,1.925-.455.77-1.085.945-1.995.525-3.046-1.47-6.196-4.55-7.351-8.051-1.016,3.536-3.676,6.581-6.966,8.506Zm22.717-22.367v10.466h4.586c.734,0,1.085.525,1.085,1.331s-.351,1.33-1.085,1.33h-4.586v16.452c0,.84-.595,1.26-1.54,1.26-.91,0-1.505-.42-1.505-1.26v-29.578c0-.735.595-1.155,1.505-1.155.945,0,1.54.42,1.54,1.155Z" style="stroke-width:0px;"/><path d="m749.613,238.302h-1.995c-1.75,0-2.381-.7-2.381-2.45v-5.006c0-1.575.596-2.31,2.171-2.31h15.331c.561,0,.665-.105.665-.665v-3.22c0-.525-.069-.63-.665-.63h-16.557c-.7,0-1.12-.63-1.12-1.4,0-.735.42-1.33,1.12-1.33h18.027c1.75,0,2.31.665,2.31,2.345v5.075c0,1.75-.7,2.275-2.45,2.275h-15.086c-.596,0-.665.105-.665.665v3.431c0,.56.104.63.665.63h17.642c.84,0,1.12.49,1.12,1.26s-.315,1.33-1.12,1.33h-4.306v5.775h7.526c.699,0,1.05.525,1.05,1.33s-.351,1.295-1.05,1.295h-27.759c-.665,0-1.05-.49-1.05-1.295s.385-1.33,1.05-1.33h7.526v-5.775Zm9.661,5.775v-5.775h-6.616v5.775h6.616Z" style="stroke-width:0px;"/><path d="m744.152,287.652c-.84.455-1.54.245-1.995-.455-.455-.735-.35-1.505.385-1.96,3.886-2.38,7.142-5.601,7.142-12.251v-3.396h-6.511c-.735,0-1.051-.595-1.051-1.365,0-.735.351-1.295,1.051-1.295h16.102c.734,0,1.085.56,1.085,1.295,0,.77-.315,1.365-1.085,1.365h-6.441v3.43c0,6.581,3.605,9.696,7.386,11.761.666.385.771,1.19.386,1.89-.49.805-1.051,1.015-1.96.595-3.081-1.505-6.196-4.411-7.387-8.051-.979,3.64-3.675,6.546-7.105,8.436Zm24.013-22.542v29.613c0,.84-.595,1.26-1.505,1.26-.945,0-1.54-.42-1.54-1.26v-17.327h-6.301c-.771,0-1.155-.525-1.155-1.33,0-.84.385-1.365,1.155-1.365h6.301v-9.591c0-.735.595-1.155,1.54-1.155.91,0,1.505.42,1.505,1.155Z" style="stroke-width:0px;"/><path d="m741.912,314.741c3.815-1.645,6.896-3.99,6.896-9.801v-.875h-6.195c-.771,0-1.085-.595-1.085-1.365,0-.735.35-1.295,1.085-1.295h15.752c.734,0,1.085.56,1.085,1.295,0,.77-.315,1.365-1.085,1.365h-6.44v.875c0,5.74,3.955,7.98,7.245,9.171.7.28.875,1.05.595,1.715-.314.735-.909,1.12-1.89.805-3.045-1.015-6.126-3.115-7.351-6.266-1.051,3.22-3.886,5.565-7.246,6.861-.875.315-1.54-.035-1.89-.665-.28-.7-.245-1.47.524-1.82Zm14.212,16.942c-6.931,0-10.606-2.311-10.606-6.266,0-4.025,3.676-6.336,10.606-6.336s10.605,2.311,10.605,6.336c0,3.955-3.675,6.266-10.605,6.266Zm0-10.116c-4.866,0-7.456,1.435-7.456,3.815,0,2.416,2.59,3.851,7.456,3.851s7.455-1.435,7.455-3.851c0-2.38-2.59-3.815-7.455-3.815Zm7.105-21.247c0-.735.63-1.155,1.505-1.155s1.506.42,1.506,1.155v7.246h4.41c.77,0,1.085.49,1.085,1.295s-.315,1.33-1.085,1.33h-4.41v7.491c0,.875-.561,1.26-1.506,1.26-.91,0-1.505-.385-1.505-1.26v-17.362Z" style="stroke-width:0px;"/><path d="m757.559,352.051v7.071h12.321c.665,0,1.051.525,1.051,1.295,0,.84-.386,1.33-1.051,1.33h-27.793c-.665,0-1.05-.49-1.05-1.33,0-.77.385-1.295,1.05-1.295h12.321v-7.071c0-.77.631-1.085,1.61-1.085.91,0,1.54.315,1.54,1.085Zm.07-15.577v2.661c0,5.53,5.32,9.031,10.116,10.151.735.175,1.015,1.015.735,1.785-.245.77-.875,1.085-1.716.91-4.48-1.015-9.101-3.851-10.746-8.086-1.575,4.235-6.23,7.141-10.746,8.086-.91.175-1.4-.14-1.68-.875-.351-.805.035-1.645.734-1.82,4.971-1.19,10.047-4.621,10.047-10.116v-2.695c0-.735.699-1.155,1.645-1.155.91,0,1.61.42,1.61,1.155Z" style="stroke-width:0px;"/></g></svg>